STARTFONT 2.1
COMMENT
COMMENT Converted from TrueType font "BOOKOS.ttf" by "ttf2bdf 2.6".
COMMENT
FONT -FreeType-Bookman Old Style-Medium-R-Normal--22-160-100-100-P-124-ISO10646-1
SIZE 16 100 100
FONTBOUNDINGBOX 35 30 -4 -7
STARTPROPERTIES 21
FOUNDRY "FreeType"
FAMILY_NAME "Bookman Old Style"
WEIGHT_NAME "Medium"
SLANT "R"
SETWIDTH_NAME "Normal"
ADD_STYLE_NAME ""
PIXEL_SIZE 22
POINT_SIZE 160
RESOLUTION_X 100
RESOLUTION_Y 100
SPACING "P"
AVERAGE_WIDTH 124
CHARSET_REGISTRY "ISO10646"
CHARSET_ENCODING "1"
FONT_ASCENT 20
FONT_DESCENT 5
COPYRIGHT "Digitized data copyright The Monotype Corporation 1991-1995. All rights reserved. Bookman Old Style" is a trademark of The Monotype Corporation which may be registered in certain jurisdictions."
_TTF_FONTFILE "BOOKOS.ttf"
_TTF_PSNAME "BookmanOldStyle"
_XFREE86_GLYPH_RANGES "32_126 160_383 402 506_511 710_711 713 728_733 894 900_906 908 910_929 931_974 1025_1036 1038_1103 1105_1116 1118_1119 1168_1169 7808_7813 7922_7923 8211_8213 8215_8222 8224_8226 8230 8240 8242_8243 8249_8250 8252 8254 8260 8319 8355_8356 8359 8364 8453 8467 8470 8482 8486 8494 8539_8542 8592_8597 8616 8706 8710 8719 8721_8722 8725 8729_8730 8734_8735 8745 8747 8776 8800_8801 8804_8805 8962 8976 8992_8993 9472 9474 9484 9488 9492 9496 9500 9508 9516 9524 9532 9552_9580 9600 9604 9608"
_XFREE86_GLYPH_RANGES "9612 9616_9619 9632_9633 9642_9644 9650 9658 9660 9668 9674_9675 9679 9688_9689 9702 9786_9788 9792 9794 9824 9827 9829_9830 9834_9835 61440_61449 61696_61704 64257_64258"
ENDPROPERTIES
CHARS 671
STARTCHAR 0020
ENCODING 32
SWIDTH 315 0
DWIDTH 7 0
BBX 1 1 0 0
BITMAP
00
ENDCHAR
STARTCHAR 0021
ENCODING 33
SWIDTH 315 0
DWIDTH 7 0
BBX 2 15 2 0
BITMAP
C0
C0
C0
C0
C0
C0
40
40
40
40
40
00
C0
C0
C0
ENDCHAR
STARTCHAR 0022
ENCODING 34
SWIDTH 360 0
DWIDTH 8 0
BBX 6 6 1 9
BITMAP
CC
CC
CC
CC
44
44
ENDCHAR
STARTCHAR 0023
ENCODING 35
SWIDTH 675 0
DWIDTH 15 0
BBX 12 15 1 0
BITMAP
0C60
0C60
0C60
0C60
18C0
7FF0
18C0
18C0
18C0
FFF0
18C0
39C0
3180
3180
3180
ENDCHAR
STARTCHAR 0024
ENCODING 36
SWIDTH 630 0
DWIDTH 14 0
BBX 11 19 1 -2
BITMAP
0400
0400
3F40
65C0
C4C0
C440
C400
7400
3C00
0F80
05C0
84E0
8460
C460
E460
74C0
4F00
0400
0400
ENDCHAR
STARTCHAR 0025
ENCODING 37
SWIDTH 990 0
DWIDTH 22 0
BBX 20 15 1 0
BITMAP
3C0300
660300
C30600
C30C00
C30C00
C31800
663000
3C63C0
006660
00CC30
018C30
018C30
030C30
060660
0C03C0
ENDCHAR
STARTCHAR 0026
ENCODING 38
SWIDTH 810 0
DWIDTH 18 0
BBX 17 15 1 0
BITMAP
0F0000
19C000
30C000
30C000
398000
0F1F00
1B0C00
618800
40C800
C0F800
C07300
C07380
607180
70D980
1F0F00
ENDCHAR
STARTCHAR 0027
ENCODING 39
SWIDTH 225 0
DWIDTH 5 0
BBX 2 6 1 9
BITMAP
C0
C0
C0
C0
40
40
ENDCHAR
STARTCHAR 0028
ENCODING 40
SWIDTH 315 0
DWIDTH 7 0
BBX 4 21 1 -5
BITMAP
20
30
60
60
40
C0
C0
C0
C0
C0
C0
C0
C0
C0
C0
C0
40
60
60
30
10
ENDCHAR
STARTCHAR 0029
ENCODING 41
SWIDTH 315 0
DWIDTH 7 0
BBX 4 21 1 -5
BITMAP
80
C0
60
60
20
30
30
30
30
30
30
30
30
30
30
30
20
60
60
C0
80
ENDCHAR
STARTCHAR 002A
ENCODING 42
SWIDTH 450 0
DWIDTH 10 0
BBX 8 8 1 7
BITMAP
18
18
18
F7
1E
3C
66
66
ENDCHAR
STARTCHAR 002B
ENCODING 43
SWIDTH 585 0
DWIDTH 13 0
BBX 12 12 1 2
BITMAP
0600
0600
0600
0600
0600
FFF0
FFF0
0600
0600
0600
0600
0600
ENDCHAR
STARTCHAR 002C
ENCODING 44
SWIDTH 315 0
DWIDTH 7 0
BBX 3 6 3 -4
BITMAP
C0
E0
20
20
40
80
ENDCHAR
STARTCHAR 002D
ENCODING 45
SWIDTH 405 0
DWIDTH 9 0
BBX 6 1 1 5
BITMAP
FC
ENDCHAR
STARTCHAR 002E
ENCODING 46
SWIDTH 315 0
DWIDTH 7 0
BBX 2 3 3 0
BITMAP
C0
C0
C0
ENDCHAR
STARTCHAR 002F
ENCODING 47
SWIDTH 585 0
DWIDTH 13 0
BBX 7 21 2 -5
BITMAP
06
06
06
0E
0C
0C
0C
18
18
18
38
30
30
30
60
60
60
60
C0
C0
C0
ENDCHAR
STARTCHAR 0030
ENCODING 48
SWIDTH 630 0
DWIDTH 14 0
BBX 12 15 1 0
BITMAP
0F00
30C0
6060
6060
C030
C030
C030
C030
C030
C030
C030
6060
6060
30C0
1F00
ENDCHAR
STARTCHAR 0031
ENCODING 49
SWIDTH 630 0
DWIDTH 14 0
BBX 8 15 3 0
BITMAP
18
F8
18
18
18
18
18
18
18
18
18
18
18
18
FF
ENDCHAR
STARTCHAR 0032
ENCODING 50
SWIDTH 630 0
DWIDTH 14 0
BBX 11 16 1 -1
BITMAP
1F00
61C0
40E0
8060
8060
8060
0060
00C0
0180
0300
0400
1820
2020
7FE0
FFC0
0040
ENDCHAR
STARTCHAR 0033
ENCODING 51
SWIDTH 630 0
DWIDTH 14 0
BBX 12 15 1 0
BITMAP
0F80
30C0
6060
4060
0060
00C0
0F00
00C0
0060
0030
C030
C030
E060
70C0
1F80
ENDCHAR
STARTCHAR 0034
ENCODING 52
SWIDTH 630 0
DWIDTH 14 0
BBX 12 15 1 0
BITMAP
0180
0380
0780
0D80
1980
3180
6180
6180
C180
FFF0
0180
0180
0180
0180
0180
ENDCHAR
STARTCHAR 0035
ENCODING 53
SWIDTH 630 0
DWIDTH 14 0
BBX 11 16 1 0
BITMAP
0040
7FC0
7FC0
4000
4000
4000
7F00
0180
00C0
0060
0060
C060
C060
E0C0
6180
1F00
ENDCHAR
STARTCHAR 0036
ENCODING 54
SWIDTH 630 0
DWIDTH 14 0
BBX 12 15 1 0
BITMAP
07C0
1C00
3000
6000
6000
DF80
E0E0
C060
C030
C030
C030
4030
6060
30E0
1F80
ENDCHAR
STARTCHAR 0037
ENCODING 55
SWIDTH 630 0
DWIDTH 14 0
BBX 12 16 1 0
BITMAP
4000
7FF0
FFE0
C020
8040
0080
0100
0300
0200
0600
0400
0C00
0C00
0800
1800
1800
ENDCHAR
STARTCHAR 0038
ENCODING 56
SWIDTH 630 0
DWIDTH 14 0
BBX 12 15 1 0
BITMAP
1F80
30C0
6060
6060
6060
38C0
1F00
1FC0
71E0
E070
C030
C030
E070
70E0
1F80
ENDCHAR
STARTCHAR 0039
ENCODING 57
SWIDTH 630 0
DWIDTH 14 0
BBX 12 15 1 0
BITMAP
1F80
70C0
6060
C020
C030
C030
C030
6030
7070
1FB0
0060
0060
00C0
0380
3E00
ENDCHAR
STARTCHAR 003A
ENCODING 58
SWIDTH 315 0
DWIDTH 7 0
BBX 2 10 3 0
BITMAP
C0
C0
C0
00
00
00
00
C0
C0
C0
ENDCHAR
STARTCHAR 003B
ENCODING 59
SWIDTH 315 0
DWIDTH 7 0
BBX 3 14 3 -4
BITMAP
C0
C0
C0
00
00
00
00
00
C0
E0
20
20
40
80
ENDCHAR
STARTCHAR 003C
ENCODING 60
SWIDTH 585 0
DWIDTH 13 0
BBX 10 9 1 2
BITMAP
00C0
07C0
3F80
F800
C000
F800
3F80
07C0
00C0
ENDCHAR
STARTCHAR 003D
ENCODING 61
SWIDTH 585 0
DWIDTH 13 0
BBX 10 6 1 5
BITMAP
FFC0
FFC0
0000
0000
FFC0
FFC0
ENDCHAR
STARTCHAR 003E
ENCODING 62
SWIDTH 585 0
DWIDTH 13 0
BBX 10 9 1 2
BITMAP
C000
F800
7F00
07C0
00C0
07C0
7F00
F800
C000
ENDCHAR
STARTCHAR 003F
ENCODING 63
SWIDTH 540 0
DWIDTH 12 0
BBX 10 15 1 0
BITMAP
3E00
E380
C180
00C0
00C0
00C0
03C0
1F80
1F00
1800
1800
0000
1800
1800
1800
ENDCHAR
STARTCHAR 0040
ENCODING 64
SWIDTH 810 0
DWIDTH 18 0
BBX 19 20 -1 -5
BITMAP
01F800
060600
080100
100080
200080
407240
41CC40
C38440
870440
860440
8E0840
8C1880
8C1880
8C7900
479E20
400040
2000C0
100180
0C0600
03F800
ENDCHAR
STARTCHAR 0041
ENCODING 65
SWIDTH 675 0
DWIDTH 15 0
BBX 15 15 0 0
BITMAP
0380
0380
06C0
06C0
0CC0
0C60
0C60
1860
1FF0
3830
3038
3018
6018
601C
F83E
ENDCHAR
STARTCHAR 0042
ENCODING 66
SWIDTH 720 0
DWIDTH 16 0
BBX 14 15 1 0
BITMAP
FFE0
3030
3018
3018
3018
3018
3030
3FC0
3038
300C
300C
300C
300C
3038
FFE0
ENDCHAR
STARTCHAR 0043
ENCODING 67
SWIDTH 720 0
DWIDTH 16 0
BBX 14 15 1 0
BITMAP
0FD0
1870
3010
6018
6008
C000
C000
C000
C000
C000
6000
6004
3008
1830
0FC0
ENDCHAR
STARTCHAR 0044
ENCODING 68
SWIDTH 810 0
DWIDTH 18 0
BBX 16 15 1 0
BITMAP
FFE0
3038
300C
3006
3006
3003
3003
3003
3003
3003
3006
3006
300C
3018
FFE0
ENDCHAR
STARTCHAR 0045
ENCODING 69
SWIDTH 630 0
DWIDTH 14 0
BBX 13 15 1 0
BITMAP
FFE0
3060
3030
3010
3080
3080
3180
3F80
3180
3080
3088
3018
3010
3070
FFE0
ENDCHAR
STARTCHAR 0046
ENCODING 70
SWIDTH 630 0
DWIDTH 14 0
BBX 13 15 1 0
BITMAP
FFF0
3030
3018
3008
3080
3080
3180
3F80
3180
3080
3080
3000
3000
3000
FC00
ENDCHAR
STARTCHAR 0047
ENCODING 71
SWIDTH 810 0
DWIDTH 18 0
BBX 16 15 1 0
BITMAP
07C8
1838
3018
600C
6004
C000
C000
C000
C03F
C00C
600C
600C
300C
1C3C
07E4
ENDCHAR
STARTCHAR 0048
ENCODING 72
SWIDTH 810 0
DWIDTH 18 0
BBX 16 15 1 0
BITMAP
FC3F
300C
300C
300C
300C
300C
300C
3FFC
300C
300C
300C
300C
300C
300C
FC3F
ENDCHAR
STARTCHAR 0049
ENCODING 73
SWIDTH 360 0
DWIDTH 8 0
BBX 6 15 1 0
BITMAP
FC
30
30
30
30
30
30
30
30
30
30
30
30
30
FC
ENDCHAR
STARTCHAR 004A
ENCODING 74
SWIDTH 585 0
DWIDTH 13 0
BBX 13 15 0 0
BITMAP
01F8
0060
0060
0060
0060
0060
0060
0060
0060
C060
C060
C060
C0C0
61C0
1F00
ENDCHAR
STARTCHAR 004B
ENCODING 75
SWIDTH 720 0
DWIDTH 16 0
BBX 15 15 1 0
BITMAP
FC7C
3010
3020
3040
3080
3100
3300
3700
3980
30C0
3060
3060
3030
3038
FC7E
ENDCHAR
STARTCHAR 004C
ENCODING 76
SWIDTH 585 0
DWIDTH 13 0
BBX 12 15 1 0
BITMAP
FC00
3000
3000
3000
3000
3000
3000
3000
3000
3000
3010
3030
3020
30E0
FFE0
ENDCHAR
STARTCHAR 004D
ENCODING 77
SWIDTH 900 0
DWIDTH 20 0
BBX 19 15 1 0
BITMAP
FC03E0
3C0780
3C0780
360580
360D80
370D80
330980
331980
319980
319180
31B180
30F180
30E180
30E180
FC47E0
ENDCHAR
STARTCHAR 004E
ENCODING 78
SWIDTH 720 0
DWIDTH 16 0
BBX 14 15 1 0
BITMAP
F8FC
3C30
3C30
3630
3630
3230
3330
3130
31B0
30B0
30F0
30F0
3070
3070
FC30
ENDCHAR
STARTCHAR 004F
ENCODING 79
SWIDTH 810 0
DWIDTH 18 0
BBX 16 15 1 0
BITMAP
07E0
1C18
300C
6006
6006
C003
C003
C003
C003
C003
6006
6006
300C
1818
07E0
ENDCHAR
STARTCHAR 0050
ENCODING 80
SWIDTH 630 0
DWIDTH 14 0
BBX 13 15 1 0
BITMAP
FFC0
3030
3018
3018
3018
3018
3030
3FE0
3000
3000
3000
3000
3000
3000
FC00
ENDCHAR
STARTCHAR 0051
ENCODING 81
SWIDTH 810 0
DWIDTH 18 0
BBX 16 19 1 -4
BITMAP
07E0
1C18
300C
6006
6006
C003
C003
C003
C003
C003
6006
6006
300C
1818
07E0
0180
0180
00C2
007C
ENDCHAR
STARTCHAR 0052
ENCODING 82
SWIDTH 720 0
DWIDTH 16 0
BBX 15 15 1 0
BITMAP
FFF0
3018
300C
300C
300C
300C
3018
3FE0
3180
3180
30C0
3060
3030
3018
FC0E
ENDCHAR
STARTCHAR 0053
ENCODING 83
SWIDTH 675 0
DWIDTH 15 0
BBX 12 15 2 0
BITMAP
1F40
61C0
C0E0
C060
C020
F000
7E00
1F80
03E0
0070
8030
C030
E030
70E0
4F80
ENDCHAR
STARTCHAR 0054
ENCODING 84
SWIDTH 630 0
DWIDTH 14 0
BBX 14 16 0 0
BITMAP
2010
7FF8
6318
4308
8304
0300
0300
0300
0300
0300
0300
0300
0300
0300
0300
0FC0
ENDCHAR
STARTCHAR 0055
ENCODING 85
SWIDTH 765 0
DWIDTH 17 0
BBX 16 15 0 0
BITMAP
FC3F
300C
300C
300C
300C
300C
300C
300C
300C
300C
300C
300C
1818
0C30
07E0
ENDCHAR
STARTCHAR 0056
ENCODING 86
SWIDTH 675 0
DWIDTH 15 0
BBX 17 15 0 0
BITMAP
F80F80
300600
300600
300600
180C00
180C00
0C1800
0C1800
063000
063000
063000
036000
036000
01C000
01C000
ENDCHAR
STARTCHAR 0057
ENCODING 87
SWIDTH 945 0
DWIDTH 21 0
BBX 21 15 0 0
BITMAP
FDFCF8
306030
303030
183060
183060
183060
1C78C0
0C78C0
0C78C0
0ECD80
06CD80
06CD80
078780
038700
038700
ENDCHAR
STARTCHAR 0058
ENCODING 88
SWIDTH 720 0
DWIDTH 16 0
BBX 16 15 0 0
BITMAP
7C3F
380C
1818
0C30
0660
0360
03C0
0180
03C0
0660
0C60
0C30
1818
300C
F83F
ENDCHAR
STARTCHAR 0059
ENCODING 89
SWIDTH 630 0
DWIDTH 14 0
BBX 15 15 0 0
BITMAP
F83E
7018
3018
1830
1860
0CC0
07C0
0780
0300
0300
0300
0300
0300
0300
0FC0
ENDCHAR
STARTCHAR 005A
ENCODING 90
SWIDTH 630 0
DWIDTH 14 0
BBX 13 15 0 0
BITMAP
3FF0
6060
C060
80C0
0180
0380
0300
0600
0C00
1C00
1808
3018
6010
6070
FFF0
ENDCHAR
STARTCHAR 005B
ENCODING 91
SWIDTH 315 0
DWIDTH 7 0
BBX 4 21 3 -5
BITMAP
F0
C0
C0
C0
C0
C0
C0
C0
C0
C0
C0
C0
C0
C0
C0
C0
C0
C0
C0
C0
F0
ENDCHAR
STARTCHAR 005C
ENCODING 92
SWIDTH 585 0
DWIDTH 13 0
BBX 8 21 3 -5
BITMAP
C0
C0
C0
60
60
60
30
30
30
18
18
18
1C
0C
0C
0C
06
06
06
03
03
ENDCHAR
STARTCHAR 005D
ENCODING 93
SWIDTH 315 0
DWIDTH 7 0
BBX 4 21 1 -5
BITMAP
F0
30
30
30
30
30
30
30
30
30
30
30
30
30
30
30
30
30
30
30
F0
ENDCHAR
STARTCHAR 005E
ENCODING 94
SWIDTH 585 0
DWIDTH 13 0
BBX 9 9 2 6
BITMAP
1C00
1C00
3600
3600
6300
6300
4100
C180
C180
ENDCHAR
STARTCHAR 005F
ENCODING 95
SWIDTH 495 0
DWIDTH 11 0
BBX 11 1 0 -3
BITMAP
FFE0
ENDCHAR
STARTCHAR 0060
ENCODING 96
SWIDTH 315 0
DWIDTH 7 0
BBX 4 3 1 12
BITMAP
C0
E0
30
ENDCHAR
STARTCHAR 0061
ENCODING 97
SWIDTH 585 0
DWIDTH 13 0
BBX 12 10 1 0
BITMAP
1F00
31C0
60C0
60C0
0FC0
78C0
C0C0
C0C0
E3C0
7C70
ENDCHAR
STARTCHAR 0062
ENCODING 98
SWIDTH 630 0
DWIDTH 14 0
BBX 12 16 1 0
BITMAP
3000
F000
3000
3000
3000
3000
33C0
3460
3870
3030
3030
3030
3030
3860
3CE0
2380
ENDCHAR
STARTCHAR 0063
ENCODING 99
SWIDTH 495 0
DWIDTH 11 0
BBX 10 10 1 0
BITMAP
1F00
7180
60C0
C0C0
C000
C000
C000
6040
7180
1F00
ENDCHAR
STARTCHAR 0064
ENCODING 100
SWIDTH 630 0
DWIDTH 14 0
BBX 12 16 1 0
BITMAP
00C0
03C0
00C0
00C0
00C0
00C0
1CC0
72C0
61C0
C0C0
C0C0
C0C0
C0C0
61C0
62C0
3CF0
ENDCHAR
STARTCHAR 0065
ENCODING 101
SWIDTH 540 0
DWIDTH 12 0
BBX 10 10 1 0
BITMAP
1F00
6180
40C0
FFC0
C000
C000
C000
6040
7180
1F00
ENDCHAR
STARTCHAR 0066
ENCODING 102
SWIDTH 315 0
DWIDTH 7 0
BBX 9 16 1 0
BITMAP
0F00
1180
3000
3000
3000
3000
FC00
3000
3000
3000
3000
3000
3000
3000
3000
FC00
ENDCHAR
STARTCHAR 0067
ENCODING 103
SWIDTH 540 0
DWIDTH 12 0
BBX 11 15 1 -5
BITMAP
3EE0
6300
C180
C180
C180
6300
7E00
C000
F000
3F80
21E0
C060
C060
E0C0
3F80
ENDCHAR
STARTCHAR 0068
ENCODING 104
SWIDTH 675 0
DWIDTH 15 0
BBX 14 16 1 0
BITMAP
3000
F000
3000
3000
3000
3000
33E0
3470
3830
3030
3030
3030
3030
3030
3030
FCFC
ENDCHAR
STARTCHAR 0069
ENCODING 105
SWIDTH 315 0
DWIDTH 7 0
BBX 6 16 1 0
BITMAP
30
30
00
00
00
00
30
F0
30
30
30
30
30
30
30
FC
ENDCHAR
STARTCHAR 006A
ENCODING 106
SWIDTH 315 0
DWIDTH 7 0
BBX 7 21 -2 -5
BITMAP
06
06
00
00
00
00
06
1E
06
06
06
06
06
06
06
06
06
06
06
C4
78
ENDCHAR
STARTCHAR 006B
ENCODING 107
SWIDTH 630 0
DWIDTH 14 0
BBX 13 16 1 0
BITMAP
3000
F000
3000
3000
3000
3000
31F8
30C0
3180
3300
3E00
3B00
3180
30C0
3060
FCF8
ENDCHAR
STARTCHAR 006C
ENCODING 108
SWIDTH 315 0
DWIDTH 7 0
BBX 6 16 1 0
BITMAP
30
F0
30
30
30
30
30
30
30
30
30
30
30
30
30
FC
ENDCHAR
STARTCHAR 006D
ENCODING 109
SWIDTH 945 0
DWIDTH 21 0
BBX 20 10 1 0
BITMAP
33C780
F468C0
3870C0
3060C0
3060C0
3060C0
3060C0
3060C0
3060C0
FDFBF0
ENDCHAR
STARTCHAR 006E
ENCODING 110
SWIDTH 675 0
DWIDTH 15 0
BBX 14 10 1 0
BITMAP
33E0
F470
3830
3030
3030
3030
3030
3030
3030
FCFC
ENDCHAR
STARTCHAR 006F
ENCODING 111
SWIDTH 540 0
DWIDTH 12 0
BBX 10 10 1 0
BITMAP
1E00
6180
6180
C0C0
C0C0
C0C0
C0C0
4180
6180
3E00
ENDCHAR
STARTCHAR 0070
ENCODING 112
SWIDTH 630 0
DWIDTH 14 0
BBX 12 15 1 -5
BITMAP
33C0
F460
3870
3030
3030
3030
3030
3860
34E0
3380
3000
3000
3000
3000
FC00
ENDCHAR
STARTCHAR 0071
ENCODING 113
SWIDTH 585 0
DWIDTH 13 0
BBX 12 15 1 -5
BITMAP
1C40
72C0
61C0
C0C0
C0C0
C0C0
C0C0
61C0
62C0
3CC0
00C0
00C0
00C0
00C0
03F0
ENDCHAR
STARTCHAR 0072
ENCODING 114
SWIDTH 450 0
DWIDTH 10 0
BBX 9 10 1 0
BITMAP
3380
F580
3800
3000
3000
3000
3000
3000
3000
FC00
ENDCHAR
STARTCHAR 0073
ENCODING 115
SWIDTH 495 0
DWIDTH 11 0
BBX 9 10 1 0
BITMAP
7A00
C700
C300
E100
7C00
0F00
8380
C180
6180
5E00
ENDCHAR
STARTCHAR 0074
ENCODING 116
SWIDTH 360 0
DWIDTH 8 0
BBX 8 14 1 0
BITMAP
10
10
30
70
FE
30
30
30
30
30
30
30
31
1E
ENDCHAR
STARTCHAR 0075
ENCODING 117
SWIDTH 675 0
DWIDTH 15 0
BBX 14 10 1 0
BITMAP
F0F0
3030
3030
3030
3030
3030
3030
3070
38B0
1F3C
ENDCHAR
STARTCHAR 0076
ENCODING 118
SWIDTH 540 0
DWIDTH 12 0
BBX 13 10 0 0
BITMAP
F8F8
3060
3060
18C0
18C0
18C0
0D80
0D80
0700
0700
ENDCHAR
STARTCHAR 0077
ENCODING 119
SWIDTH 765 0
DWIDTH 17 0
BBX 17 10 0 0
BITMAP
FBEF80
618200
618200
31C400
31C400
196800
1A6800
1A6800
0C3000
0C3000
ENDCHAR
STARTCHAR 0078
ENCODING 120
SWIDTH 540 0
DWIDTH 12 0
BBX 12 10 0 0
BITMAP
FCF0
3060
18C0
0D80
0700
0700
0F80
1980
30C0
F9F0
ENDCHAR
STARTCHAR 0079
ENCODING 121
SWIDTH 540 0
DWIDTH 12 0
BBX 12 15 0 -5
BITMAP
F8F0
7040
3040
3080
1880
1880
0D00
0D00
0600
0600
0400
0400
0400
C800
F000
ENDCHAR
STARTCHAR 007A
ENCODING 122
SWIDTH 495 0
DWIDTH 11 0
BBX 11 10 0 0
BITMAP
7FE0
60C0
C180
8300
0600
0C00
1820
3060
60C0
FFC0
ENDCHAR
STARTCHAR 007B
ENCODING 123
SWIDTH 270 0
DWIDTH 6 0
BBX 6 20 1 -5
BITMAP
0C
18
30
30
30
30
30
30
60
80
60
20
30
30
30
30
30
30
18
0C
ENDCHAR
STARTCHAR 007C
ENCODING 124
SWIDTH 585 0
DWIDTH 13 0
BBX 2 21 6 -5
BITMAP
C0
C0
C0
C0
C0
C0
C0
C0
C0
C0
C0
C0
C0
C0
C0
C0
C0
C0
C0
C0
C0
ENDCHAR
STARTCHAR 007D
ENCODING 125
SWIDTH 270 0
DWIDTH 6 0
BBX 6 20 -1 -5
BITMAP
C0
60
30
30
30
30
30
30
18
04
18
10
30
30
30
30
30
30
60
C0
ENDCHAR
STARTCHAR 007E
ENCODING 126
SWIDTH 585 0
DWIDTH 13 0
BBX 10 3 1 6
BITMAP
7040
CCC0
8380
ENDCHAR
STARTCHAR 00A0
ENCODING 160
SWIDTH 315 0
DWIDTH 7 0
BBX 1 1 0 0
BITMAP
00
ENDCHAR
STARTCHAR 00A1
ENCODING 161
SWIDTH 315 0
DWIDTH 7 0
BBX 2 15 2 -5
BITMAP
C0
C0
C0
00
80
80
80
80
80
C0
C0
C0
C0
C0
C0
ENDCHAR
STARTCHAR 00A2
ENCODING 162
SWIDTH 630 0
DWIDTH 14 0
BBX 10 16 2 0
BITMAP
0400
0400
0400
1F00
7580
64C0
C4C0
C400
C400
C400
6440
7580
1F00
0400
0400
0400
ENDCHAR
STARTCHAR 00A3
ENCODING 163
SWIDTH 630 0
DWIDTH 14 0
BBX 14 15 0 0
BITMAP
07C0
1C30
1810
3018
3008
3000
3000
FF80
1800
1C00
6C04
9C04
8E0C
9DF8
78F0
ENDCHAR
STARTCHAR 00A4
ENCODING 164
SWIDTH 585 0
DWIDTH 13 0
BBX 10 10 2 3
BITMAP
DEC0
7380
6180
C0C0
C0C0
C0C0
C0C0
6180
7380
DEC0
ENDCHAR
STARTCHAR 00A5
ENCODING 165
SWIDTH 630 0
DWIDTH 14 0
BBX 15 15 0 0
BITMAP
F83E
3018
3018
1830
1C60
0CE0
06C0
0780
7FF8
0300
7FF8
0300
0300
0300
0FC0
ENDCHAR
STARTCHAR 00A6
ENCODING 166
SWIDTH 585 0
DWIDTH 13 0
BBX 2 21 6 -5
BITMAP
C0
C0
C0
C0
C0
C0
C0
C0
C0
80
00
40
C0
C0
C0
C0
C0
C0
C0
C0
C0
ENDCHAR
STARTCHAR 00A7
ENCODING 167
SWIDTH 495 0
DWIDTH 11 0
BBX 9 19 1 -4
BITMAP
3E00
6380
C180
C180
E000
7800
3F00
6780
C180
C180
C180
7100
3E00
0700
0180
C180
C180
4300
3E00
ENDCHAR
STARTCHAR 00A8
ENCODING 168
SWIDTH 405 0
DWIDTH 9 0
BBX 5 3 1 12
BITMAP
D8
D8
D8
ENDCHAR
STARTCHAR 00A9
ENCODING 169
SWIDTH 720 0
DWIDTH 16 0
BBX 15 15 1 0
BITMAP
07C0
1830
2008
43E4
4C64
8822
9802
9802
9802
9802
4C64
47C4
2008
1830
07C0
ENDCHAR
STARTCHAR 00AA
ENCODING 170
SWIDTH 405 0
DWIDTH 9 0
BBX 9 7 1 8
BITMAP
7C00
C600
C600
3E00
E600
C600
7B80
ENDCHAR
STARTCHAR 00AB
ENCODING 171
SWIDTH 360 0
DWIDTH 8 0
BBX 6 8 1 2
BITMAP
24
6C
48
D8
D8
48
6C
24
ENDCHAR
STARTCHAR 00AC
ENCODING 172
SWIDTH 585 0
DWIDTH 13 0
BBX 10 8 1 0
BITMAP
FFC0
FFC0
00C0
00C0
00C0
00C0
00C0
00C0
ENDCHAR
STARTCHAR 00AD
ENCODING 173
SWIDTH 405 0
DWIDTH 9 0
BBX 6 1 1 5
BITMAP
FC
ENDCHAR
STARTCHAR 00AE
ENCODING 174
SWIDTH 720 0
DWIDTH 16 0
BBX 15 15 1 0
BITMAP
07C0
1830
2008
5FC4
4CE4
8C62
8CE2
8F82
8D82
8CC2
4C64
5E34
2008
1830
07C0
ENDCHAR
STARTCHAR 00AF
ENCODING 175
SWIDTH 495 0
DWIDTH 11 0
BBX 11 1 0 16
BITMAP
FFE0
ENDCHAR
STARTCHAR 00B0
ENCODING 176
SWIDTH 405 0
DWIDTH 9 0
BBX 6 6 1 9
BITMAP
78
CC
84
84
CC
78
ENDCHAR
STARTCHAR 00B1
ENCODING 177
SWIDTH 540 0
DWIDTH 12 0
BBX 12 15 1 1
BITMAP
0600
0600
0600
0600
0600
FFF0
FFF0
0600
0600
0600
0600
0600
0000
FFF0
FFF0
ENDCHAR
STARTCHAR 00B2
ENCODING 178
SWIDTH 360 0
DWIDTH 8 0
BBX 7 8 1 7
BITMAP
7C
C6
86
06
0C
30
62
FE
ENDCHAR
STARTCHAR 00B3
ENCODING 179
SWIDTH 360 0
DWIDTH 8 0
BBX 7 8 0 7
BITMAP
7C
86
06
38
06
86
C6
7C
ENDCHAR
STARTCHAR 00B4
ENCODING 180
SWIDTH 315 0
DWIDTH 7 0
BBX 4 3 1 12
BITMAP
30
70
C0
ENDCHAR
STARTCHAR 00B5
ENCODING 181
SWIDTH 585 0
DWIDTH 13 0
BBX 11 14 1 -4
BITMAP
60C0
60C0
60C0
60C0
60C0
60C0
60C0
61C0
73C0
5C60
4000
C000
C000
C000
ENDCHAR
STARTCHAR 00B6
ENCODING 182
SWIDTH 585 0
DWIDTH 13 0
BBX 12 20 2 -5
BITMAP
1FF0
7E60
FE60
FE60
FE60
FE60
7E60
3E60
0660
0660
0660
0660
0660
0660
0660
0660
0660
0660
0660
0660
ENDCHAR
STARTCHAR 00B7
ENCODING 183
SWIDTH 270 0
DWIDTH 6 0
BBX 2 3 1 7
BITMAP
C0
C0
C0
ENDCHAR
STARTCHAR 00B8
ENCODING 184
SWIDTH 315 0
DWIDTH 7 0
BBX 4 4 1 -4
BITMAP
20
70
10
F0
ENDCHAR
STARTCHAR 00B9
ENCODING 185
SWIDTH 360 0
DWIDTH 8 0
BBX 6 8 2 7
BITMAP
30
F0
30
30
30
30
30
FC
ENDCHAR
STARTCHAR 00BA
ENCODING 186
SWIDTH 405 0
DWIDTH 9 0
BBX 7 7 1 8
BITMAP
38
6C
C6
C6
C6
4C
78
ENDCHAR
STARTCHAR 00BB
ENCODING 187
SWIDTH 360 0
DWIDTH 8 0
BBX 6 8 2 2
BITMAP
90
D8
48
6C
6C
48
D8
90
ENDCHAR
STARTCHAR 00BC
ENCODING 188
SWIDTH 900 0
DWIDTH 20 0
BBX 17 15 3 0
BITMAP
301800
F03800
303000
306000
30E000
30C000
318000
FF8600
030E00
061600
0E2600
0C7F80
180600
380600
300600
ENDCHAR
STARTCHAR 00BD
ENCODING 189
SWIDTH 900 0
DWIDTH 20 0
BBX 17 15 3 0
BITMAP
301800
F03800
303000
306000
30E000
30C000
318000
FF9F00
033180
062180
0E0180
0C0300
180C00
381880
303F80
ENDCHAR
STARTCHAR 00BE
ENCODING 190
SWIDTH 900 0
DWIDTH 20 0
BBX 19 15 1 0
BITMAP
7C0600
860E00
060C00
381800
063800
863000
C66000
7CE180
00C380
018580
038980
031FE0
060180
0E0180
0C0180
ENDCHAR
STARTCHAR 00BF
ENCODING 191
SWIDTH 540 0
DWIDTH 12 0
BBX 10 15 1 -5
BITMAP
0600
0600
0600
0000
0600
0600
3E00
7E00
F000
C000
C000
C000
60C0
71C0
1F00
ENDCHAR
STARTCHAR 00C0
ENCODING 192
SWIDTH 675 0
DWIDTH 15 0
BBX 15 19 0 0
BITMAP
0600
0700
0180
0000
0380
0380
06C0
06C0
0CC0
0C60
0C60
1860
1FF0
3830
3038
3018
6018
601C
F83E
ENDCHAR
STARTCHAR 00C1
ENCODING 193
SWIDTH 675 0
DWIDTH 15 0
BBX 15 19 0 0
BITMAP
00C0
01C0
0300
0000
0380
0380
06C0
06C0
0CC0
0C60
0C60
1860
1FF0
3830
3038
3018
6018
601C
F83E
ENDCHAR
STARTCHAR 00C2
ENCODING 194
SWIDTH 675 0
DWIDTH 15 0
BBX 15 19 0 0
BITMAP
0100
06C0
0820
0000
0380
0380
06C0
06C0
0CC0
0C60
0C60
1860
1FF0
3830
3038
3018
6018
601C
F83E
ENDCHAR
STARTCHAR 00C3
ENCODING 195
SWIDTH 675 0
DWIDTH 15 0
BBX 15 18 0 0
BITMAP
0720
09C0
0000
0380
0380
06C0
06C0
0CC0
0C60
0C60
1860
1FF0
3830
3038
3018
6018
601C
F83E
ENDCHAR
STARTCHAR 00C4
ENCODING 196
SWIDTH 675 0
DWIDTH 15 0
BBX 15 19 0 0
BITMAP
06C0
06C0
06C0
0000
0380
0380
06C0
06C0
0CC0
0C60
0C60
1860
1FF0
3830
3038
3018
6018
601C
F83E
ENDCHAR
STARTCHAR 00C5
ENCODING 197
SWIDTH 675 0
DWIDTH 15 0
BBX 15 21 0 0
BITMAP
0380
0440
0440
0440
0380
0000
0380
0380
06C0
06C0
0CC0
0C60
0C60
1860
1FF0
3830
3038
3018
6018
601C
F83E
ENDCHAR
STARTCHAR 00C6
ENCODING 198
SWIDTH 1260 0
DWIDTH 28 0
BBX 27 15 0 0
BITMAP
01FFFF80
00630180
00C300C0
00C30040
01830400
03030400
03030C00
07FFFC00
06030C00
0C030400
18030420
18030060
300300C0
700301C0
F80FFF80
ENDCHAR
STARTCHAR 00C7
ENCODING 199
SWIDTH 720 0
DWIDTH 16 0
BBX 14 19 1 -4
BITMAP
0FD0
1870
3010
6018
6008
C000
C000
C000
C000
C000
6000
6004
3008
1830
0FC0
0100
0380
0080
0780
ENDCHAR
STARTCHAR 00C8
ENCODING 200
SWIDTH 630 0
DWIDTH 14 0
BBX 13 19 1 0
BITMAP
1800
1C00
0600
0000
FFE0
3060
3030
3010
3080
3080
3180
3F80
3180
3080
3088
3018
3010
3070
FFE0
ENDCHAR
STARTCHAR 00C9
ENCODING 201
SWIDTH 630 0
DWIDTH 14 0
BBX 13 19 1 0
BITMAP
0300
0700
0C00
0000
FFE0
3060
3030
3010
3080
3080
3180
3F80
3180
3080
3088
3018
3010
3070
FFE0
ENDCHAR
STARTCHAR 00CA
ENCODING 202
SWIDTH 630 0
DWIDTH 14 0
BBX 13 19 1 0
BITMAP
0400
1B00
2080
0000
FFE0
3060
3030
3010
3080
3080
3180
3F80
3180
3080
3088
3018
3010
3070
FFE0
ENDCHAR
STARTCHAR 00CB
ENCODING 203
SWIDTH 630 0
DWIDTH 14 0
BBX 13 19 1 0
BITMAP
1B00
1B00
1B00
0000
FFE0
3060
3030
3010
3080
3080
3180
3F80
3180
3080
3088
3018
3010
3070
FFE0
ENDCHAR
STARTCHAR 00CC
ENCODING 204
SWIDTH 360 0
DWIDTH 8 0
BBX 6 19 1 0
BITMAP
C0
E0
30
00
FC
30
30
30
30
30
30
30
30
30
30
30
30
30
FC
ENDCHAR
STARTCHAR 00CD
ENCODING 205
SWIDTH 360 0
DWIDTH 8 0
BBX 6 19 1 0
BITMAP
18
38
60
00
FC
30
30
30
30
30
30
30
30
30
30
30
30
30
FC
ENDCHAR
STARTCHAR 00CE
ENCODING 206
SWIDTH 360 0
DWIDTH 8 0
BBX 7 19 1 0
BITMAP
10
6C
82
00
FC
30
30
30
30
30
30
30
30
30
30
30
30
30
FC
ENDCHAR
STARTCHAR 00CF
ENCODING 207
SWIDTH 360 0
DWIDTH 8 0
BBX 6 19 1 0
BITMAP
D8
D8
D8
00
FC
30
30
30
30
30
30
30
30
30
30
30
30
30
FC
ENDCHAR
STARTCHAR 00D0
ENCODING 208
SWIDTH 810 0
DWIDTH 18 0
BBX 16 15 1 0
BITMAP
FFE0
3038
300C
3006
3006
3003
3003
FF83
3003
3003
3006
3006
300C
3018
FFE0
ENDCHAR
STARTCHAR 00D1
ENCODING 209
SWIDTH 720 0
DWIDTH 16 0
BBX 14 18 1 0
BITMAP
0720
09C0
0000
F8FC
3C30
3C30
3630
3630
3230
3330
3130
31B0
30B0
30F0
30F0
3070
3070
FC30
ENDCHAR
STARTCHAR 00D2
ENCODING 210
SWIDTH 810 0
DWIDTH 18 0
BBX 16 19 1 0
BITMAP
0600
0700
0180
0000
07E0
1C18
300C
6006
6006
C003
C003
C003
C003
C003
6006
6006
300C
1818
07E0
ENDCHAR
STARTCHAR 00D3
ENCODING 211
SWIDTH 810 0
DWIDTH 18 0
BBX 16 19 1 0
BITMAP
00C0
01C0
0300
0000
07E0
1C18
300C
6006
6006
C003
C003
C003
C003
C003
6006
6006
300C
1818
07E0
ENDCHAR
STARTCHAR 00D4
ENCODING 212
SWIDTH 810 0
DWIDTH 18 0
BBX 16 19 1 0
BITMAP
0080
0360
0410
0000
07E0
1C18
300C
6006
6006
C003
C003
C003
C003
C003
6006
6006
300C
1818
07E0
ENDCHAR
STARTCHAR 00D5
ENCODING 213
SWIDTH 810 0
DWIDTH 18 0
BBX 16 18 1 0
BITMAP
0390
04E0
0000
07E0
1C18
300C
6006
6006
C003
C003
C003
C003
C003
6006
6006
300C
1818
07E0
ENDCHAR
STARTCHAR 00D6
ENCODING 214
SWIDTH 810 0
DWIDTH 18 0
BBX 16 19 1 0
BITMAP
06C0
06C0
06C0
0000
07E0
1C18
300C
6006
6006
C003
C003
C003
C003
C003
6006
6006
300C
1818
07E0
ENDCHAR
STARTCHAR 00D7
ENCODING 215
SWIDTH 585 0
DWIDTH 13 0
BBX 9 9 3 3
BITMAP
8080
C180
6300
3600
1C00
1C00
3600
6300
C180
ENDCHAR
STARTCHAR 00D8
ENCODING 216
SWIDTH 810 0
DWIDTH 18 0
BBX 16 15 1 0
BITMAP
07E3
1C1E
300C
601E
6016
C023
C043
C083
C103
C203
6406
6806
300C
3818
47E0
ENDCHAR
STARTCHAR 00D9
ENCODING 217
SWIDTH 765 0
DWIDTH 17 0
BBX 16 19 0 0
BITMAP
0300
0380
00C0
0000
FC3F
300C
300C
300C
300C
300C
300C
300C
300C
300C
300C
300C
1818
0C30
07E0
ENDCHAR
STARTCHAR 00DA
ENCODING 218
SWIDTH 765 0
DWIDTH 17 0
BBX 16 19 0 0
BITMAP
00C0
01C0
0300
0000
FC3F
300C
300C
300C
300C
300C
300C
300C
300C
300C
300C
300C
1818
0C30
07E0
ENDCHAR
STARTCHAR 00DB
ENCODING 219
SWIDTH 765 0
DWIDTH 17 0
BBX 16 19 0 0
BITMAP
0100
06C0
0820
0000
FC3F
300C
300C
300C
300C
300C
300C
300C
300C
300C
300C
300C
1818
0C30
07E0
ENDCHAR
STARTCHAR 00DC
ENCODING 220
SWIDTH 765 0
DWIDTH 17 0
BBX 16 19 0 0
BITMAP
0360
0360
0360
0000
FC3F
300C
300C
300C
300C
300C
300C
300C
300C
300C
300C
300C
1818
0C30
07E0
ENDCHAR
STARTCHAR 00DD
ENCODING 221
SWIDTH 630 0
DWIDTH 14 0
BBX 15 19 0 0
BITMAP
0180
0380
0600
0000
F83E
7018
3018
1830
1860
0CC0
07C0
0780
0300
0300
0300
0300
0300
0300
0FC0
ENDCHAR
STARTCHAR 00DE
ENCODING 222
SWIDTH 630 0
DWIDTH 14 0
BBX 13 15 1 0
BITMAP
FC00
3000
3000
3FC0
3030
3018
3018
3018
3018
3038
3030
3FC0
3000
3000
FC00
ENDCHAR
STARTCHAR 00DF
ENCODING 223
SWIDTH 675 0
DWIDTH 15 0
BBX 13 16 1 0
BITMAP
0780
18C0
1060
3060
31E0
3300
F300
3380
31E0
3070
3038
3018
3018
3618
3630
F3E0
ENDCHAR
STARTCHAR 00E0
ENCODING 224
SWIDTH 585 0
DWIDTH 13 0
BBX 12 15 1 0
BITMAP
1800
1C00
0600
0000
0000
1F00
31C0
60C0
60C0
0FC0
78C0
C0C0
C0C0
E3C0
7C70
ENDCHAR
STARTCHAR 00E1
ENCODING 225
SWIDTH 585 0
DWIDTH 13 0
BBX 12 15 1 0
BITMAP
0300
0700
0C00
0000
0000
1F00
31C0
60C0
60C0
0FC0
78C0
C0C0
C0C0
E3C0
7C70
ENDCHAR
STARTCHAR 00E2
ENCODING 226
SWIDTH 585 0
DWIDTH 13 0
BBX 12 15 1 0
BITMAP
0400
1B00
2080
0000
0000
1F00
31C0
60C0
60C0
0FC0
78C0
C0C0
C0C0
E3C0
7C70
ENDCHAR
STARTCHAR 00E3
ENCODING 227
SWIDTH 585 0
DWIDTH 13 0
BBX 12 14 1 0
BITMAP
1C80
2700
0000
0000
1F00
31C0
60C0
60C0
0FC0
78C0
C0C0
C0C0
E3C0
7C70
ENDCHAR
STARTCHAR 00E4
ENCODING 228
SWIDTH 585 0
DWIDTH 13 0
BBX 12 15 1 0
BITMAP
1B00
1B00
1B00
0000
0000
1F00
31C0
60C0
60C0
0FC0
78C0
C0C0
C0C0
E3C0
7C70
ENDCHAR
STARTCHAR 00E5
ENCODING 229
SWIDTH 585 0
DWIDTH 13 0
BBX 12 17 1 0
BITMAP
0E00
1100
1100
1100
0E00
0000
0000
1F00
31C0
60C0
60C0
0FC0
78C0
C0C0
C0C0
E3C0
7C70
ENDCHAR
STARTCHAR 00E6
ENCODING 230
SWIDTH 855 0
DWIDTH 19 0
BBX 17 10 1 0
BITMAP
1F1E00
31E300
60C180
60FF80
0FC000
78C000
C0C000
C0E080
E37180
7C1E00
ENDCHAR
STARTCHAR 00E7
ENCODING 231
SWIDTH 495 0
DWIDTH 11 0
BBX 10 14 1 -4
BITMAP
1F00
7180
60C0
C0C0
C000
C000
C000
6040
7180
1F00
0400
0E00
0200
1E00
ENDCHAR
STARTCHAR 00E8
ENCODING 232
SWIDTH 540 0
DWIDTH 12 0
BBX 10 15 1 0
BITMAP
1800
1C00
0600
0000
0000
1F00
6180
40C0
FFC0
C000
C000
C000
6040
7180
1F00
ENDCHAR
STARTCHAR 00E9
ENCODING 233
SWIDTH 540 0
DWIDTH 12 0
BBX 10 15 1 0
BITMAP
0600
0E00
1800
0000
0000
1F00
6180
40C0
FFC0
C000
C000
C000
6040
7180
1F00
ENDCHAR
STARTCHAR 00EA
ENCODING 234
SWIDTH 540 0
DWIDTH 12 0
BBX 10 15 1 0
BITMAP
0400
1B00
2080
0000
0000
1F00
6180
40C0
FFC0
C000
C000
C000
6040
7180
1F00
ENDCHAR
STARTCHAR 00EB
ENCODING 235
SWIDTH 540 0
DWIDTH 12 0
BBX 10 15 1 0
BITMAP
3600
3600
3600
0000
0000
1F00
6180
40C0
FFC0
C000
C000
C000
6040
7180
1F00
ENDCHAR
STARTCHAR 00EC
ENCODING 236
SWIDTH 315 0
DWIDTH 7 0
BBX 6 15 1 0
BITMAP
C0
E0
30
00
00
30
F0
30
30
30
30
30
30
30
FC
ENDCHAR
STARTCHAR 00ED
ENCODING 237
SWIDTH 315 0
DWIDTH 7 0
BBX 6 15 1 0
BITMAP
18
38
60
00
00
30
F0
30
30
30
30
30
30
30
FC
ENDCHAR
STARTCHAR 00EE
ENCODING 238
SWIDTH 315 0
DWIDTH 7 0
BBX 7 15 1 0
BITMAP
10
6C
82
00
00
30
F0
30
30
30
30
30
30
30
FC
ENDCHAR
STARTCHAR 00EF
ENCODING 239
SWIDTH 315 0
DWIDTH 7 0
BBX 6 15 1 0
BITMAP
D8
D8
D8
00
00
30
F0
30
30
30
30
30
30
30
FC
ENDCHAR
STARTCHAR 00F0
ENCODING 240
SWIDTH 540 0
DWIDTH 12 0
BBX 10 16 1 0
BITMAP
0C80
0700
1B00
0100
0180
0180
1CC0
62C0
61C0
C0C0
C0C0
C0C0
C0C0
6180
6100
1E00
ENDCHAR
STARTCHAR 00F1
ENCODING 241
SWIDTH 675 0
DWIDTH 15 0
BBX 14 14 1 0
BITMAP
0E40
1380
0000
0000
33E0
F470
3830
3030
3030
3030
3030
3030
3030
FCFC
ENDCHAR
STARTCHAR 00F2
ENCODING 242
SWIDTH 540 0
DWIDTH 12 0
BBX 10 15 1 0
BITMAP
1800
1C00
0600
0000
0000
1E00
6180
6180
C0C0
C0C0
C0C0
C0C0
4180
6180
3E00
ENDCHAR
STARTCHAR 00F3
ENCODING 243
SWIDTH 540 0
DWIDTH 12 0
BBX 10 15 1 0
BITMAP
0600
0E00
1800
0000
0000
1E00
6180
6180
C0C0
C0C0
C0C0
C0C0
4180
6180
3E00
ENDCHAR
STARTCHAR 00F4
ENCODING 244
SWIDTH 540 0
DWIDTH 12 0
BBX 10 15 1 0
BITMAP
0400
1B00
2080
0000
0000
1E00
6180
6180
C0C0
C0C0
C0C0
C0C0
4180
6180
3E00
ENDCHAR
STARTCHAR 00F5
ENCODING 245
SWIDTH 540 0
DWIDTH 12 0
BBX 10 14 1 0
BITMAP
1C80
2700
0000
0000
1E00
6180
6180
C0C0
C0C0
C0C0
C0C0
4180
6180
3E00
ENDCHAR
STARTCHAR 00F6
ENCODING 246
SWIDTH 540 0
DWIDTH 12 0
BBX 10 15 1 0
BITMAP
1B00
1B00
1B00
0000
0000
1E00
6180
6180
C0C0
C0C0
C0C0
C0C0
4180
6180
3E00
ENDCHAR
STARTCHAR 00F7
ENCODING 247
SWIDTH 540 0
DWIDTH 12 0
BBX 10 10 1 3
BITMAP
0C00
0C00
0000
0000
FFC0
FFC0
0000
0000
0C00
0C00
ENDCHAR
STARTCHAR 00F8
ENCODING 248
SWIDTH 540 0
DWIDTH 12 0
BBX 10 10 1 0
BITMAP
1E40
6180
6180
C2C0
C4C0
C8C0
D0C0
6180
6180
5E00
ENDCHAR
STARTCHAR 00F9
ENCODING 249
SWIDTH 675 0
DWIDTH 15 0
BBX 14 15 1 0
BITMAP
0600
0700
0180
0000
0000
F0F0
3030
3030
3030
3030
3030
3030
3070
38B0
1F3C
ENDCHAR
STARTCHAR 00FA
ENCODING 250
SWIDTH 675 0
DWIDTH 15 0
BBX 14 15 1 0
BITMAP
0180
0380
0600
0000
0000
F0F0
3030
3030
3030
3030
3030
3030
3070
38B0
1F3C
ENDCHAR
STARTCHAR 00FB
ENCODING 251
SWIDTH 675 0
DWIDTH 15 0
BBX 14 15 1 0
BITMAP
0100
06C0
0820
0000
0000
F0F0
3030
3030
3030
3030
3030
3030
3070
38B0
1F3C
ENDCHAR
STARTCHAR 00FC
ENCODING 252
SWIDTH 675 0
DWIDTH 15 0
BBX 14 15 1 0
BITMAP
0D80
0D80
0D80
0000
0000
F0F0
3030
3030
3030
3030
3030
3030
3070
38B0
1F3C
ENDCHAR
STARTCHAR 00FD
ENCODING 253
SWIDTH 540 0
DWIDTH 12 0
BBX 12 20 0 -5
BITMAP
0180
0380
0600
0000
0000
F8F0
7040
3040
3080
1880
1880
0D00
0D00
0600
0600
0400
0400
0400
C800
F000
ENDCHAR
STARTCHAR 00FE
ENCODING 254
SWIDTH 630 0
DWIDTH 14 0
BBX 12 21 1 -5
BITMAP
3000
F000
3000
3000
3000
3000
33C0
3460
3870
3030
3030
3030
3030
3860
34E0
3380
3000
3000
3000
3000
FC00
ENDCHAR
STARTCHAR 00FF
ENCODING 255
SWIDTH 540 0
DWIDTH 12 0
BBX 12 20 0 -5
BITMAP
1B00
1B00
1B00
0000
0000
F8F0
7040
3040
3080
1880
1880
0D00
0D00
0600
0600
0400
0400
0400
C800
F000
ENDCHAR
STARTCHAR 0100
ENCODING 256
SWIDTH 675 0
DWIDTH 15 0
BBX 15 17 0 0
BITMAP
0FE0
0000
0380
0380
06C0
06C0
0CC0
0C60
0C60
1860
1FF0
3830
3038
3018
6018
601C
F83E
ENDCHAR
STARTCHAR 0101
ENCODING 257
SWIDTH 585 0
DWIDTH 13 0
BBX 12 13 1 0
BITMAP
3F80
0000
0000
1F00
31C0
60C0
60C0
0FC0
78C0
C0C0
C0C0
E3C0
7C70
ENDCHAR
STARTCHAR 0102
ENCODING 258
SWIDTH 675 0
DWIDTH 15 0
BBX 15 18 0 0
BITMAP
0820
07C0
0000
0380
0380
06C0
06C0
0CC0
0C60
0C60
1860
1FF0
3830
3038
3018
6018
601C
F83E
ENDCHAR
STARTCHAR 0103
ENCODING 259
SWIDTH 585 0
DWIDTH 13 0
BBX 12 14 1 0
BITMAP
2080
1F00
0000
0000
1F00
31C0
60C0
60C0
0FC0
78C0
C0C0
C0C0
E3C0
7C70
ENDCHAR
STARTCHAR 0104
ENCODING 260
SWIDTH 675 0
DWIDTH 15 0
BBX 15 18 0 -3
BITMAP
0380
0380
06C0
06C0
0CC0
0C60
0C60
1860
1FF0
3830
3038
3018
6018
601C
F83E
0010
0012
001C
ENDCHAR
STARTCHAR 0105
ENCODING 261
SWIDTH 585 0
DWIDTH 13 0
BBX 13 13 1 -3
BITMAP
1F00
31C0
60C0
60C0
0FC0
78C0
C0C0
C0C0
E3C0
7C70
0040
0048
0070
ENDCHAR
STARTCHAR 0106
ENCODING 262
SWIDTH 720 0
DWIDTH 16 0
BBX 14 19 1 0
BITMAP
00C0
01C0
0300
0000
0FD0
1870
3010
6018
6008
C000
C000
C000
C000
C000
6000
6004
3008
1830
0FC0
ENDCHAR
STARTCHAR 0107
ENCODING 263
SWIDTH 495 0
DWIDTH 11 0
BBX 10 15 1 0
BITMAP
0300
0700
0C00
0000
0000
1F00
7180
60C0
C0C0
C000
C000
C000
6040
7180
1F00
ENDCHAR
STARTCHAR 0108
ENCODING 264
SWIDTH 720 0
DWIDTH 16 0
BBX 14 19 1 0
BITMAP
0200
0D80
1040
0000
0FD0
1870
3010
6018
6008
C000
C000
C000
C000
C000
6000
6004
3008
1830
0FC0
ENDCHAR
STARTCHAR 0109
ENCODING 265
SWIDTH 495 0
DWIDTH 11 0
BBX 10 15 1 0
BITMAP
0800
3600
4100
0000
0000
1F00
7180
60C0
C0C0
C000
C000
C000
6040
7180
1F00
ENDCHAR
STARTCHAR 010A
ENCODING 266
SWIDTH 720 0
DWIDTH 16 0
BBX 14 19 1 0
BITMAP
0300
0300
0300
0000
0FD0
1870
3010
6018
6008
C000
C000
C000
C000
C000
6000
6004
3008
1830
0FC0
ENDCHAR
STARTCHAR 010B
ENCODING 267
SWIDTH 495 0
DWIDTH 11 0
BBX 10 15 1 0
BITMAP
0C00
0C00
0C00
0000
0000
1F00
7180
60C0
C0C0
C000
C000
C000
6040
7180
1F00
ENDCHAR
STARTCHAR 010C
ENCODING 268
SWIDTH 720 0
DWIDTH 16 0
BBX 14 19 1 0
BITMAP
1040
0D80
0200
0000
0FD0
1870
3010
6018
6008
C000
C000
C000
C000
C000
6000
6004
3008
1830
0FC0
ENDCHAR
STARTCHAR 010D
ENCODING 269
SWIDTH 495 0
DWIDTH 11 0
BBX 10 15 1 0
BITMAP
2080
1B00
0400
0000
0000
1F00
7180
60C0
C0C0
C000
C000
C000
6040
7180
1F00
ENDCHAR
STARTCHAR 010E
ENCODING 270
SWIDTH 810 0
DWIDTH 18 0
BBX 16 19 1 0
BITMAP
0820
06C0
0100
0000
FFE0
3038
300C
3006
3006
3003
3003
3003
3003
3003
3006
3006
300C
3018
FFE0
ENDCHAR
STARTCHAR 010F
ENCODING 271
SWIDTH 675 0
DWIDTH 15 0
BBX 14 16 1 0
BITMAP
00D8
03DC
00C4
00C4
00C8
00D0
1CC0
72C0
61C0
C0C0
C0C0
C0C0
C0C0
61C0
62C0
3CF0
ENDCHAR
STARTCHAR 0110
ENCODING 272
SWIDTH 810 0
DWIDTH 18 0
BBX 16 15 1 0
BITMAP
FFE0
3038
300C
3006
3006
3003
3003
FF83
3003
3003
3006
3006
300C
3018
FFE0
ENDCHAR
STARTCHAR 0111
ENCODING 273
SWIDTH 630 0
DWIDTH 14 0
BBX 12 16 1 0
BITMAP
0040
01C0
00C0
07F0
00C0
00C0
1CC0
72C0
61C0
C0C0
C0C0
C0C0
C0C0
61C0
62C0
3CF0
ENDCHAR
STARTCHAR 0112
ENCODING 274
SWIDTH 630 0
DWIDTH 14 0
BBX 13 17 1 0
BITMAP
1FC0
0000
FFE0
3060
3030
3010
3080
3080
3180
3F80
3180
3080
3088
3018
3010
3070
FFE0
ENDCHAR
STARTCHAR 0113
ENCODING 275
SWIDTH 540 0
DWIDTH 12 0
BBX 10 13 1 0
BITMAP
3F80
0000
0000
1F00
6180
40C0
FFC0
C000
C000
C000
6040
7180
1F00
ENDCHAR
STARTCHAR 0114
ENCODING 276
SWIDTH 630 0
DWIDTH 14 0
BBX 13 18 1 0
BITMAP
1040
0F80
0000
FFE0
3060
3030
3010
3080
3080
3180
3F80
3180
3080
3088
3018
3010
3070
FFE0
ENDCHAR
STARTCHAR 0115
ENCODING 277
SWIDTH 540 0
DWIDTH 12 0
BBX 10 14 1 0
BITMAP
2080
1F00
0000
0000
1F00
6180
40C0
FFC0
C000
C000
C000
6040
7180
1F00
ENDCHAR
STARTCHAR 0116
ENCODING 278
SWIDTH 630 0
DWIDTH 14 0
BBX 13 19 1 0
BITMAP
0600
0600
0600
0000
FFE0
3060
3030
3010
3080
3080
3180
3F80
3180
3080
3088
3018
3010
3070
FFE0
ENDCHAR
STARTCHAR 0117
ENCODING 279
SWIDTH 540 0
DWIDTH 12 0
BBX 10 15 1 0
BITMAP
0C00
0C00
0C00
0000
0000
1F00
6180
40C0
FFC0
C000
C000
C000
6040
7180
1F00
ENDCHAR
STARTCHAR 0118
ENCODING 280
SWIDTH 630 0
DWIDTH 14 0
BBX 13 18 1 -3
BITMAP
FFE0
3060
3030
3010
3080
3080
3180
3F80
3180
3080
3088
3018
3010
3070
FFE0
0040
0048
0070
ENDCHAR
STARTCHAR 0119
ENCODING 281
SWIDTH 540 0
DWIDTH 12 0
BBX 10 13 1 -3
BITMAP
1F00
6180
40C0
FFC0
C000
C000
C000
6040
7180
1F00
0800
0900
0E00
ENDCHAR
STARTCHAR 011A
ENCODING 282
SWIDTH 630 0
DWIDTH 14 0
BBX 13 19 1 0
BITMAP
2080
1B00
0400
0000
FFE0
3060
3030
3010
3080
3080
3180
3F80
3180
3080
3088
3018
3010
3070
FFE0
ENDCHAR
STARTCHAR 011B
ENCODING 283
SWIDTH 540 0
DWIDTH 12 0
BBX 10 15 1 0
BITMAP
2080
1B00
0400
0000
0000
1F00
6180
40C0
FFC0
C000
C000
C000
6040
7180
1F00
ENDCHAR
STARTCHAR 011C
ENCODING 284
SWIDTH 810 0
DWIDTH 18 0
BBX 16 19 1 0
BITMAP
0200
0D80
1040
0000
07C8
1838
3018
600C
6004
C000
C000
C000
C03F
C00C
600C
600C
300C
1C3C
07E4
ENDCHAR
STARTCHAR 011D
ENCODING 285
SWIDTH 540 0
DWIDTH 12 0
BBX 11 20 1 -5
BITMAP
0400
1B00
2080
0000
0000
3EE0
6300
C180
C180
C180
6300
7E00
C000
F000
3F80
21E0
C060
C060
E0C0
3F80
ENDCHAR
STARTCHAR 011E
ENCODING 286
SWIDTH 810 0
DWIDTH 18 0
BBX 16 18 1 0
BITMAP
0410
03E0
0000
07C8
1838
3018
600C
6004
C000
C000
C000
C03F
C00C
600C
600C
300C
1C3C
07E4
ENDCHAR
STARTCHAR 011F
ENCODING 287
SWIDTH 540 0
DWIDTH 12 0
BBX 11 19 1 -5
BITMAP
4100
3E00
0000
0000
3EE0
6300
C180
C180
C180
6300
7E00
C000
F000
3F80
21E0
C060
C060
E0C0
3F80
ENDCHAR
STARTCHAR 0120
ENCODING 288
SWIDTH 810 0
DWIDTH 18 0
BBX 16 19 1 0
BITMAP
0300
0300
0300
0000
07C8
1838
3018
600C
6004
C000
C000
C000
C03F
C00C
600C
600C
300C
1C3C
07E4
ENDCHAR
STARTCHAR 0121
ENCODING 289
SWIDTH 540 0
DWIDTH 12 0
BBX 11 20 1 -5
BITMAP
0C00
0C00
0C00
0000
0000
3EE0
6300
C180
C180
C180
6300
7E00
C000
F000
3F80
21E0
C060
C060
E0C0
3F80
ENDCHAR
STARTCHAR 0122
ENCODING 290
SWIDTH 810 0
DWIDTH 18 0
BBX 16 19 1 -4
BITMAP
07C8
1838
3018
600C
6004
C000
C000
C000
C03F
C00C
600C
600C
300C
1C3C
07E4
0200
0700
0100
0F00
ENDCHAR
STARTCHAR 0123
ENCODING 291
SWIDTH 540 0
DWIDTH 12 0
BBX 11 21 1 -5
BITMAP
0800
1000
1800
1800
0000
0000
3EE0
6300
C180
C180
C180
6300
7E00
C000
F000
3F80
21E0
C060
C060
E0C0
3F80
ENDCHAR
STARTCHAR 0124
ENCODING 292
SWIDTH 810 0
DWIDTH 18 0
BBX 16 19 1 0
BITMAP
0080
0360
0410
0000
FC3F
300C
300C
300C
300C
300C
300C
3FFC
300C
300C
300C
300C
300C
300C
FC3F
ENDCHAR
STARTCHAR 0125
ENCODING 293
SWIDTH 675 0
DWIDTH 15 0
BBX 14 20 1 0
BITMAP
0200
0D80
1040
0000
3000
F000
3000
3000
3000
3000
33E0
3470
3830
3030
3030
3030
3030
3030
3030
FCFC
ENDCHAR
STARTCHAR 0126
ENCODING 294
SWIDTH 810 0
DWIDTH 18 0
BBX 16 15 1 0
BITMAP
FC3F
300C
300C
FFFF
300C
300C
300C
3FFC
300C
300C
300C
300C
300C
300C
FC3F
ENDCHAR
STARTCHAR 0127
ENCODING 295
SWIDTH 675 0
DWIDTH 15 0
BBX 14 16 1 0
BITMAP
3000
F000
3000
3000
FF00
3000
33E0
3C70
3030
3030
3030
3030
3030
3030
3030
FCFC
ENDCHAR
STARTCHAR 0128
ENCODING 296
SWIDTH 360 0
DWIDTH 8 0
BBX 7 18 1 0
BITMAP
72
9C
00
FC
30
30
30
30
30
30
30
30
30
30
30
30
30
FC
ENDCHAR
STARTCHAR 0129
ENCODING 297
SWIDTH 315 0
DWIDTH 7 0
BBX 7 14 0 0
BITMAP
72
9C
00
00
18
78
18
18
18
18
18
18
18
7E
ENDCHAR
STARTCHAR 012A
ENCODING 298
SWIDTH 360 0
DWIDTH 8 0
BBX 7 17 1 0
BITMAP
FE
00
FC
30
30
30
30
30
30
30
30
30
30
30
30
30
FC
ENDCHAR
STARTCHAR 012B
ENCODING 299
SWIDTH 315 0
DWIDTH 7 0
BBX 7 13 0 0
BITMAP
FE
00
00
18
78
18
18
18
18
18
18
18
7E
ENDCHAR
STARTCHAR 012C
ENCODING 300
SWIDTH 360 0
DWIDTH 8 0
BBX 7 18 1 0
BITMAP
82
7C
00
FC
30
30
30
30
30
30
30
30
30
30
30
30
30
FC
ENDCHAR
STARTCHAR 012D
ENCODING 301
SWIDTH 315 0
DWIDTH 7 0
BBX 7 14 0 0
BITMAP
82
7C
00
00
18
78
18
18
18
18
18
18
18
7E
ENDCHAR
STARTCHAR 012E
ENCODING 302
SWIDTH 360 0
DWIDTH 8 0
BBX 6 18 1 -3
BITMAP
FC
30
30
30
30
30
30
30
30
30
30
30
30
30
FC
40
48
70
ENDCHAR
STARTCHAR 012F
ENCODING 303
SWIDTH 315 0
DWIDTH 7 0
BBX 6 19 1 -3
BITMAP
30
30
00
00
00
00
30
F0
30
30
30
30
30
30
30
FC
20
24
38
ENDCHAR
STARTCHAR 0130
ENCODING 304
SWIDTH 360 0
DWIDTH 8 0
BBX 6 19 1 0
BITMAP
30
30
30
00
FC
30
30
30
30
30
30
30
30
30
30
30
30
30
FC
ENDCHAR
STARTCHAR 0131
ENCODING 305
SWIDTH 315 0
DWIDTH 7 0
BBX 6 10 1 0
BITMAP
30
F0
30
30
30
30
30
30
30
FC
ENDCHAR
STARTCHAR 0132
ENCODING 306
SWIDTH 945 0
DWIDTH 21 0
BBX 19 15 1 0
BITMAP
FC07E0
300180
300180
300180
300180
300180
300180
300180
300180
318180
318180
318180
318180
30C300
FC7C00
ENDCHAR
STARTCHAR 0133
ENCODING 307
SWIDTH 585 0
DWIDTH 13 0
BBX 10 21 1 -5
BITMAP
30C0
30C0
0000
0000
0000
0000
30C0
F3C0
30C0
30C0
30C0
30C0
30C0
30C0
30C0
FCC0
00C0
00C0
00C0
1880
0F00
ENDCHAR
STARTCHAR 0134
ENCODING 308
SWIDTH 585 0
DWIDTH 13 0
BBX 14 19 0 0
BITMAP
0020
00D8
0104
0000
01F8
0060
0060
0060
0060
0060
0060
0060
0060
C060
C060
C060
C0C0
61C0
1F00
ENDCHAR
STARTCHAR 0135
ENCODING 309
SWIDTH 315 0
DWIDTH 7 0
BBX 8 20 -2 -5
BITMAP
08
3E
63
00
00
06
1E
06
06
06
06
06
06
06
06
06
06
06
C4
78
ENDCHAR
STARTCHAR 0136
ENCODING 310
SWIDTH 720 0
DWIDTH 16 0
BBX 15 19 1 -4
BITMAP
FC7C
3010
3020
3040
3080
3100
3300
3700
3980
30C0
3060
3060
3030
3038
FC7E
0000
03C0
0040
03C0
ENDCHAR
STARTCHAR 0137
ENCODING 311
SWIDTH 630 0
DWIDTH 14 0
BBX 13 20 1 -4
BITMAP
3000
F000
3000
3000
3000
3000
31F8
30C0
3180
3300
3E00
3B00
3180
30C0
3060
FCF8
0000
0F00
0100
0F00
ENDCHAR
STARTCHAR 0138
ENCODING 312
SWIDTH 630 0
DWIDTH 14 0
BBX 13 10 1 0
BITMAP
31F0
F0C0
3380
3600
3E00
3B00
3180
30C0
3060
FDF8
ENDCHAR
STARTCHAR 0139
ENCODING 313
SWIDTH 585 0
DWIDTH 13 0
BBX 12 19 1 0
BITMAP
0C00
1C00
3000
0000
FC00
3000
3000
3000
3000
3000
3000
3000
3000
3000
3010
3030
3020
30E0
FFE0
ENDCHAR
STARTCHAR 013A
ENCODING 314
SWIDTH 315 0
DWIDTH 7 0
BBX 6 20 1 0
BITMAP
18
38
60
00
30
F0
30
30
30
30
30
30
30
30
30
30
30
30
30
FC
ENDCHAR
STARTCHAR 013B
ENCODING 315
SWIDTH 585 0
DWIDTH 13 0
BBX 12 19 1 -4
BITMAP
FC00
3000
3000
3000
3000
3000
3000
3000
3000
3000
3010
3030
3020
30E0
FFE0
0000
0F00
0100
0F00
ENDCHAR
STARTCHAR 013C
ENCODING 316
SWIDTH 315 0
DWIDTH 7 0
BBX 6 20 1 -4
BITMAP
30
F0
30
30
30
30
30
30
30
30
30
30
30
30
30
FC
00
78
08
78
ENDCHAR
STARTCHAR 013D
ENCODING 317
SWIDTH 585 0
DWIDTH 13 0
BBX 12 15 1 0
BITMAP
FCC0
30E0
3020
3020
3040
3080
3000
3000
3000
3000
3010
3030
3020
30E0
FFE0
ENDCHAR
STARTCHAR 013E
ENCODING 318
SWIDTH 360 0
DWIDTH 8 0
BBX 8 16 1 0
BITMAP
36
F7
31
31
32
34
30
30
30
30
30
30
30
30
30
FC
ENDCHAR
STARTCHAR 013F
ENCODING 319
SWIDTH 585 0
DWIDTH 13 0
BBX 12 15 1 0
BITMAP
FC00
3000
3000
3000
3000
3600
3600
3600
3000
3000
3010
3030
3020
30E0
FFE0
ENDCHAR
STARTCHAR 0140
ENCODING 320
SWIDTH 315 0
DWIDTH 7 0
BBX 7 16 1 0
BITMAP
30
F0
30
30
30
30
36
36
36
30
30
30
30
30
30
FC
ENDCHAR
STARTCHAR 0141
ENCODING 321
SWIDTH 585 0
DWIDTH 13 0
BBX 13 15 1 0
BITMAP
FC00
3000
3000
3000
3300
3400
3800
3000
3000
7000
B018
3018
3030
3070
FFE0
ENDCHAR
STARTCHAR 0142
ENCODING 322
SWIDTH 315 0
DWIDTH 7 0
BBX 6 16 1 0
BITMAP
30
F0
30
30
30
30
34
38
30
70
B0
30
30
30
30
FC
ENDCHAR
STARTCHAR 0143
ENCODING 323
SWIDTH 720 0
DWIDTH 16 0
BBX 14 19 1 0
BITMAP
00C0
01C0
0300
0000
F8FC
3C30
3C30
3630
3630
3230
3330
3130
31B0
30B0
30F0
30F0
3070
3070
FC30
ENDCHAR
STARTCHAR 0144
ENCODING 324
SWIDTH 675 0
DWIDTH 15 0
BBX 14 15 1 0
BITMAP
0300
0700
0C00
0000
0000
33E0
F470
3830
3030
3030
3030
3030
3030
3030
FCFC
ENDCHAR
STARTCHAR 0145
ENCODING 325
SWIDTH 720 0
DWIDTH 16 0
BBX 14 19 1 -4
BITMAP
F8FC
3C30
3C30
3630
3630
3230
3330
3130
31B0
30B0
30F0
30F0
3070
3070
FC30
0000
0780
0080
0780
ENDCHAR
STARTCHAR 0146
ENCODING 326
SWIDTH 675 0
DWIDTH 15 0
BBX 14 14 1 -4
BITMAP
33E0
F470
3830
3030
3030
3030
3030
3030
3030
FCFC
0000
0780
0080
0780
ENDCHAR
STARTCHAR 0147
ENCODING 327
SWIDTH 720 0
DWIDTH 16 0
BBX 14 19 1 0
BITMAP
0820
06C0
0100
0000
F8FC
3C30
3C30
3630
3630
3230
3330
3130
31B0
30B0
30F0
30F0
3070
3070
FC30
ENDCHAR
STARTCHAR 0148
ENCODING 328
SWIDTH 675 0
DWIDTH 15 0
BBX 14 15 1 0
BITMAP
1040
0D80
0200
0000
0000
33E0
F470
3830
3030
3030
3030
3030
3030
3030
FCFC
ENDCHAR
STARTCHAR 0149
ENCODING 329
SWIDTH 765 0
DWIDTH 17 0
BBX 17 15 0 0
BITMAP
C00000
E00000
200000
200000
400000
867C00
1E8E00
070600
060600
060600
060600
060600
060600
060600
1F9F80
ENDCHAR
STARTCHAR 014A
ENCODING 330
SWIDTH 810 0
DWIDTH 18 0
BBX 16 15 1 0
BITMAP
F1F0
361C
380C
3006
3007
3003
3003
3003
3003
3003
3183
3182
3186
308C
FC78
ENDCHAR
STARTCHAR 014B
ENCODING 331
SWIDTH 630 0
DWIDTH 14 0
BBX 12 15 1 -5
BITMAP
33E0
F470
3830
3030
3030
3030
3030
3030
3030
FC30
0030
0030
0030
0620
03C0
ENDCHAR
STARTCHAR 014C
ENCODING 332
SWIDTH 810 0
DWIDTH 18 0
BBX 16 17 1 0
BITMAP
07F0
0000
07E0
1C18
300C
6006
6006
C003
C003
C003
C003
C003
6006
6006
300C
1818
07E0
ENDCHAR
STARTCHAR 014D
ENCODING 333
SWIDTH 540 0
DWIDTH 12 0
BBX 10 13 1 0
BITMAP
3F80
0000
0000
1E00
6180
6180
C0C0
C0C0
C0C0
C0C0
4180
6180
3E00
ENDCHAR
STARTCHAR 014E
ENCODING 334
SWIDTH 810 0
DWIDTH 18 0
BBX 16 18 1 0
BITMAP
0410
03E0
0000
07E0
1C18
300C
6006
6006
C003
C003
C003
C003
C003
6006
6006
300C
1818
07E0
ENDCHAR
STARTCHAR 014F
ENCODING 335
SWIDTH 540 0
DWIDTH 12 0
BBX 10 14 1 0
BITMAP
2080
1F00
0000
0000
1E00
6180
6180
C0C0
C0C0
C0C0
C0C0
4180
6180
3E00
ENDCHAR
STARTCHAR 0150
ENCODING 336
SWIDTH 810 0
DWIDTH 18 0
BBX 16 19 1 0
BITMAP
00A0
01C0
0140
0000
07E0
1C18
300C
6006
6006
C003
C003
C003
C003
C003
6006
6006
300C
1818
07E0
ENDCHAR
STARTCHAR 0151
ENCODING 337
SWIDTH 540 0
DWIDTH 12 0
BBX 10 15 1 0
BITMAP
0500
0E00
0A00
0000
0000
1E00
6180
6180
C0C0
C0C0
C0C0
C0C0
4180
6180
3E00
ENDCHAR
STARTCHAR 0152
ENCODING 338
SWIDTH 1215 0
DWIDTH 27 0
BBX 25 15 1 0
BITMAP
07C7FE00
18260600
30160300
600E0100
60061000
C0061000
C0063000
C007F000
C0063000
C0061000
40061080
600E0180
30160100
18260700
07C7FF00
ENDCHAR
STARTCHAR 0153
ENCODING 339
SWIDTH 900 0
DWIDTH 20 0
BBX 17 10 1 0
BITMAP
1F1E00
61A300
61C180
C0FF80
C0C000
C0C000
C0C000
61E080
61B380
1F1E00
ENDCHAR
STARTCHAR 0154
ENCODING 340
SWIDTH 720 0
DWIDTH 16 0
BBX 15 19 1 0
BITMAP
0180
0380
0600
0000
FFF0
3018
300C
300C
300C
300C
3018
3FE0
3180
3180
30C0
3060
3030
3018
FC0E
ENDCHAR
STARTCHAR 0155
ENCODING 341
SWIDTH 450 0
DWIDTH 10 0
BBX 9 15 1 0
BITMAP
0600
0E00
1800
0000
0000
3380
F580
3800
3000
3000
3000
3000
3000
3000
FC00
ENDCHAR
STARTCHAR 0156
ENCODING 342
SWIDTH 720 0
DWIDTH 16 0
BBX 15 19 1 -4
BITMAP
FFF0
3018
300C
300C
300C
300C
3018
3FE0
3180
3180
30C0
3060
3030
3018
FC0E
0000
0780
0080
0780
ENDCHAR
STARTCHAR 0157
ENCODING 343
SWIDTH 450 0
DWIDTH 10 0
BBX 9 14 1 -4
BITMAP
3380
F580
3800
3000
3000
3000
3000
3000
3000
FC00
0000
3C00
0400
3C00
ENDCHAR
STARTCHAR 0158
ENCODING 344
SWIDTH 720 0
DWIDTH 16 0
BBX 15 19 1 0
BITMAP
0820
06C0
0100
0000
FFF0
3018
300C
300C
300C
300C
3018
3FE0
3180
3180
30C0
3060
3030
3018
FC0E
ENDCHAR
STARTCHAR 0159
ENCODING 345
SWIDTH 450 0
DWIDTH 10 0
BBX 9 15 1 0
BITMAP
4100
3600
0800
0000
0000
3380
F580
3800
3000
3000
3000
3000
3000
3000
FC00
ENDCHAR
STARTCHAR 015A
ENCODING 346
SWIDTH 675 0
DWIDTH 15 0
BBX 12 19 2 0
BITMAP
0300
0700
0C00
0000
1F40
61C0
C0E0
C060
C020
F000
7E00
1F80
03E0
0070
8030
C030
E030
70E0
4F80
ENDCHAR
STARTCHAR 015B
ENCODING 347
SWIDTH 495 0
DWIDTH 11 0
BBX 9 15 1 0
BITMAP
0600
0E00
1800
0000
0000
7A00
C700
C300
E100
7C00
0F00
8380
C180
6180
5E00
ENDCHAR
STARTCHAR 015C
ENCODING 348
SWIDTH 675 0
DWIDTH 15 0
BBX 12 19 2 0
BITMAP
0400
1B00
2080
0000
1F40
61C0
C0E0
C060
C020
F000
7E00
1F80
03E0
0070
8030
C030
E030
70E0
4F80
ENDCHAR
STARTCHAR 015D
ENCODING 349
SWIDTH 495 0
DWIDTH 11 0
BBX 9 15 1 0
BITMAP
1000
6C00
8200
0000
0000
7A00
C700
C300
E100
7C00
0F00
8380
C180
6180
5E00
ENDCHAR
STARTCHAR 015E
ENCODING 350
SWIDTH 675 0
DWIDTH 15 0
BBX 12 19 2 -4
BITMAP
1F40
61C0
C0E0
C060
C020
F000
7E00
1F80
03E0
0070
8030
C030
E030
70E0
4F80
0200
0700
0100
0F00
ENDCHAR
STARTCHAR 015F
ENCODING 351
SWIDTH 495 0
DWIDTH 11 0
BBX 9 14 1 -4
BITMAP
7A00
C700
C300
E100
7C00
0F00
8380
C180
6180
5E00
0400
0E00
0200
1E00
ENDCHAR
STARTCHAR 0160
ENCODING 352
SWIDTH 675 0
DWIDTH 15 0
BBX 12 19 2 0
BITMAP
2080
1B00
0400
0000
1F40
61C0
C0E0
C060
C020
F000
7E00
1F80
03E0
0070
8030
C030
E030
70E0
4F80
ENDCHAR
STARTCHAR 0161
ENCODING 353
SWIDTH 495 0
DWIDTH 11 0
BBX 9 15 1 0
BITMAP
4100
3600
0800
0000
0000
7A00
C700
C300
E100
7C00
0F00
8380
C180
6180
5E00
ENDCHAR
STARTCHAR 0162
ENCODING 354
SWIDTH 630 0
DWIDTH 14 0
BBX 14 21 0 -5
BITMAP
2010
7FF8
6318
4308
8304
0300
0300
0300
0300
0300
0300
0300
0300
0300
0300
0FC0
0000
0300
0300
0100
0200
ENDCHAR
STARTCHAR 0163
ENCODING 355
SWIDTH 360 0
DWIDTH 8 0
BBX 8 19 1 -5
BITMAP
10
10
30
70
FE
30
30
30
30
30
30
30
31
1E
00
18
18
08
10
ENDCHAR
STARTCHAR 0164
ENCODING 356
SWIDTH 630 0
DWIDTH 14 0
BBX 14 19 0 0
BITMAP
0820
06C0
0100
2010
7FF8
6318
4308
8304
0300
0300
0300
0300
0300
0300
0300
0300
0300
0300
0FC0
ENDCHAR
STARTCHAR 0165
ENCODING 357
SWIDTH 360 0
DWIDTH 8 0
BBX 8 16 1 0
BITMAP
03
03
11
11
32
70
FE
30
30
30
30
30
30
30
31
1E
ENDCHAR
STARTCHAR 0166
ENCODING 358
SWIDTH 630 0
DWIDTH 14 0
BBX 14 16 0 0
BITMAP
2010
7FF8
6318
8304
0300
0300
0300
0300
3FF0
0300
0300
0300
0300
0300
0300
0FC0
ENDCHAR
STARTCHAR 0167
ENCODING 359
SWIDTH 360 0
DWIDTH 8 0
BBX 8 14 1 0
BITMAP
10
10
30
70
FE
30
30
30
FE
30
30
30
31
1E
ENDCHAR
STARTCHAR 0168
ENCODING 360
SWIDTH 765 0
DWIDTH 17 0
BBX 16 18 0 0
BITMAP
0720
09C0
0000
FC3F
300C
300C
300C
300C
300C
300C
300C
300C
300C
300C
300C
1818
0C30
07E0
ENDCHAR
STARTCHAR 0169
ENCODING 361
SWIDTH 675 0
DWIDTH 15 0
BBX 14 14 1 0
BITMAP
0E40
1380
0000
0000
F0F0
3030
3030
3030
3030
3030
3030
3070
38B0
1F3C
ENDCHAR
STARTCHAR 016A
ENCODING 362
SWIDTH 765 0
DWIDTH 17 0
BBX 16 17 0 0
BITMAP
0FE0
0000
FC3F
300C
300C
300C
300C
300C
300C
300C
300C
300C
300C
300C
1818
0C30
07E0
ENDCHAR
STARTCHAR 016B
ENCODING 363
SWIDTH 675 0
DWIDTH 15 0
BBX 14 13 1 0
BITMAP
1FC0
0000
0000
F0F0
3030
3030
3030
3030
3030
3030
3070
38B0
1F3C
ENDCHAR
STARTCHAR 016C
ENCODING 364
SWIDTH 765 0
DWIDTH 17 0
BBX 16 18 0 0
BITMAP
0820
07C0
0000
FC3F
300C
300C
300C
300C
300C
300C
300C
300C
300C
300C
300C
1818
0C30
07E0
ENDCHAR
STARTCHAR 016D
ENCODING 365
SWIDTH 675 0
DWIDTH 15 0
BBX 14 14 1 0
BITMAP
1040
0F80
0000
0000
F0F0
3030
3030
3030
3030
3030
3030
3070
38B0
1F3C
ENDCHAR
STARTCHAR 016E
ENCODING 366
SWIDTH 765 0
DWIDTH 17 0
BBX 16 21 0 0
BITMAP
0380
0440
0440
0440
0380
0000
FC3F
300C
300C
300C
300C
300C
300C
300C
300C
300C
300C
300C
1818
0C30
07E0
ENDCHAR
STARTCHAR 016F
ENCODING 367
SWIDTH 675 0
DWIDTH 15 0
BBX 14 17 1 0
BITMAP
0380
0440
0440
0440
0380
0000
0000
F0F0
3030
3030
3030
3030
3030
3030
3070
38B0
1F3C
ENDCHAR
STARTCHAR 0170
ENCODING 368
SWIDTH 765 0
DWIDTH 17 0
BBX 16 19 0 0
BITMAP
00A0
01C0
0140
0000
FC3F
300C
300C
300C
300C
300C
300C
300C
300C
300C
300C
300C
1818
0C30
07E0
ENDCHAR
STARTCHAR 0171
ENCODING 369
SWIDTH 675 0
DWIDTH 15 0
BBX 14 15 1 0
BITMAP
0280
0700
0500
0000
0000
F0F0
3030
3030
3030
3030
3030
3030
3070
38B0
1F3C
ENDCHAR
STARTCHAR 0172
ENCODING 370
SWIDTH 765 0
DWIDTH 17 0
BBX 16 18 0 -3
BITMAP
FC3F
300C
300C
300C
300C
300C
300C
300C
300C
300C
300C
300C
1818
0C30
07E0
0100
0120
01C0
ENDCHAR
STARTCHAR 0173
ENCODING 371
SWIDTH 675 0
DWIDTH 15 0
BBX 14 13 1 -3
BITMAP
F0F0
3030
3030
3030
3030
3030
3030
3070
38B0
1F3C
0020
0024
0038
ENDCHAR
STARTCHAR 0174
ENCODING 372
SWIDTH 945 0
DWIDTH 21 0
BBX 21 19 0 0
BITMAP
002000
00D800
010400
000000
FDFCF8
306030
303030
183060
183060
183060
1C78C0
0C78C0
0C78C0
0ECD80
06CD80
06CD80
078780
038700
038700
ENDCHAR
STARTCHAR 0175
ENCODING 373
SWIDTH 765 0
DWIDTH 17 0
BBX 17 15 0 0
BITMAP
008000
036000
041000
000000
000000
FBEF80
618200
618200
31C400
31C400
196800
1A6800
1A6800
0C3000
0C3000
ENDCHAR
STARTCHAR 0176
ENCODING 374
SWIDTH 630 0
DWIDTH 14 0
BBX 15 19 0 0
BITMAP
0100
06C0
0820
0000
F83E
7018
3018
1830
1860
0CC0
07C0
0780
0300
0300
0300
0300
0300
0300
0FC0
ENDCHAR
STARTCHAR 0177
ENCODING 375
SWIDTH 540 0
DWIDTH 12 0
BBX 12 20 0 -5
BITMAP
0400
1B00
2080
0000
0000
F8F0
7040
3040
3080
1880
1880
0D00
0D00
0600
0600
0400
0400
0400
C800
F000
ENDCHAR
STARTCHAR 0178
ENCODING 376
SWIDTH 630 0
DWIDTH 14 0
BBX 15 19 0 0
BITMAP
0D80
0D80
0D80
0000
F83E
7018
3018
1830
1860
0CC0
07C0
0780
0300
0300
0300
0300
0300
0300
0FC0
ENDCHAR
STARTCHAR 0179
ENCODING 377
SWIDTH 630 0
DWIDTH 14 0
BBX 13 19 0 0
BITMAP
00C0
01C0
0300
0000
3FF0
6060
C060
80C0
0180
0380
0300
0600
0C00
1C00
1808
3018
6010
6070
FFF0
ENDCHAR
STARTCHAR 017A
ENCODING 378
SWIDTH 495 0
DWIDTH 11 0
BBX 11 15 0 0
BITMAP
0300
0700
0C00
0000
0000
7FE0
60C0
C180
8300
0600
0C00
1820
3060
60C0
FFC0
ENDCHAR
STARTCHAR 017B
ENCODING 379
SWIDTH 630 0
DWIDTH 14 0
BBX 13 19 0 0
BITMAP
0300
0300
0300
0000
3FF0
6060
C060
80C0
0180
0380
0300
0600
0C00
1C00
1808
3018
6010
6070
FFF0
ENDCHAR
STARTCHAR 017C
ENCODING 380
SWIDTH 495 0
DWIDTH 11 0
BBX 11 15 0 0
BITMAP
0600
0600
0600
0000
0000
7FE0
60C0
C180
8300
0600
0C00
1820
3060
60C0
FFC0
ENDCHAR
STARTCHAR 017D
ENCODING 381
SWIDTH 630 0
DWIDTH 14 0
BBX 13 19 0 0
BITMAP
0820
06C0
0100
0000
3FF0
6060
C060
80C0
0180
0380
0300
0600
0C00
1C00
1808
3018
6010
6070
FFF0
ENDCHAR
STARTCHAR 017E
ENCODING 382
SWIDTH 495 0
DWIDTH 11 0
BBX 11 15 0 0
BITMAP
1040
0D80
0200
0000
0000
7FE0
60C0
C180
8300
0600
0C00
1820
3060
60C0
FFC0
ENDCHAR
STARTCHAR 017F
ENCODING 383
SWIDTH 315 0
DWIDTH 7 0
BBX 9 16 0 0
BITMAP
0F00
1180
3000
3000
3000
3000
3000
3000
3000
3000
3000
3000
3000
3000
3000
FC00
ENDCHAR
STARTCHAR 0192
ENCODING 402
SWIDTH 630 0
DWIDTH 14 0
BBX 15 20 -1 -4
BITMAP
003C
0066
00C0
00C0
00C0
01C0
07F0
0180
0180
0300
0300
0300
0300
0600
0600
0600
0C00
0C00
C800
F000
ENDCHAR
STARTCHAR 01FA
ENCODING 506
SWIDTH 675 0
DWIDTH 15 0
BBX 15 23 0 0
BITMAP
0180
0380
0600
0000
0380
0440
0440
0440
0380
0380
06C0
06C0
0CC0
0C60
0C60
1860
1FF0
3830
3038
3018
6018
601C
F83E
ENDCHAR
STARTCHAR 01FB
ENCODING 507
SWIDTH 585 0
DWIDTH 13 0
BBX 12 21 1 0
BITMAP
0300
0700
0C00
0000
0E00
1100
1100
1100
0E00
0000
0000
1F00
31C0
60C0
60C0
0FC0
78C0
C0C0
C0C0
E3C0
7C70
ENDCHAR
STARTCHAR 01FC
ENCODING 508
SWIDTH 1260 0
DWIDTH 28 0
BBX 27 19 0 0
BITMAP
00018000
00038000
00060000
00000000
01FFFF80
00630180
00C300C0
00C30040
01830400
03030400
03030C00
07FFFC00
06030C00
0C030400
18030420
18030060
300300C0
700301C0
F80FFF80
ENDCHAR
STARTCHAR 01FD
ENCODING 509
SWIDTH 855 0
DWIDTH 19 0
BBX 17 15 1 0
BITMAP
006000
00E000
018000
000000
000000
1F1E00
31E300
60C180
60FF80
0FC000
78C000
C0C000
C0E080
E37180
7C1E00
ENDCHAR
STARTCHAR 01FE
ENCODING 510
SWIDTH 810 0
DWIDTH 18 0
BBX 16 19 1 0
BITMAP
0060
00E0
0180
0000
07E3
1C1E
300C
601E
6016
C023
C043
C083
C103
C203
6406
6806
300C
3818
47E0
ENDCHAR
STARTCHAR 01FF
ENCODING 511
SWIDTH 540 0
DWIDTH 12 0
BBX 10 15 1 0
BITMAP
0600
0E00
1800
0000
0000
1E40
6180
6180
C2C0
C4C0
C8C0
D0C0
6180
6180
5E00
ENDCHAR
STARTCHAR 02C6
ENCODING 710
SWIDTH 405 0
DWIDTH 9 0
BBX 7 3 1 12
BITMAP
10
6C
82
ENDCHAR
STARTCHAR 02C7
ENCODING 711
SWIDTH 405 0
DWIDTH 9 0
BBX 7 3 1 12
BITMAP
82
6C
10
ENDCHAR
STARTCHAR 02C9
ENCODING 713
SWIDTH 450 0
DWIDTH 10 0
BBX 7 1 1 13
BITMAP
FE
ENDCHAR
STARTCHAR 02D8
ENCODING 728
SWIDTH 450 0
DWIDTH 10 0
BBX 7 2 1 13
BITMAP
82
7C
ENDCHAR
STARTCHAR 02D9
ENCODING 729
SWIDTH 270 0
DWIDTH 6 0
BBX 2 3 1 12
BITMAP
C0
C0
C0
ENDCHAR
STARTCHAR 02DA
ENCODING 730
SWIDTH 315 0
DWIDTH 7 0
BBX 5 5 1 12
BITMAP
70
88
88
88
70
ENDCHAR
STARTCHAR 02DB
ENCODING 731
SWIDTH 315 0
DWIDTH 7 0
BBX 4 3 2 -3
BITMAP
80
90
E0
ENDCHAR
STARTCHAR 02DC
ENCODING 732
SWIDTH 450 0
DWIDTH 10 0
BBX 7 2 1 13
BITMAP
72
9C
ENDCHAR
STARTCHAR 02DD
ENCODING 733
SWIDTH 360 0
DWIDTH 8 0
BBX 4 3 2 12
BITMAP
50
E0
A0
ENDCHAR
STARTCHAR 037E
ENCODING 894
SWIDTH 315 0
DWIDTH 7 0
BBX 3 14 3 -4
BITMAP
C0
C0
C0
00
00
00
00
00
C0
E0
20
20
40
80
ENDCHAR
STARTCHAR 0384
ENCODING 900
SWIDTH 405 0
DWIDTH 9 0
BBX 2 4 4 12
BITMAP
C0
C0
C0
80
ENDCHAR
STARTCHAR 0385
ENCODING 901
SWIDTH 405 0
DWIDTH 9 0
BBX 8 4 0 12
BITMAP
18
DB
DB
D3
ENDCHAR
STARTCHAR 0386
ENCODING 902
SWIDTH 675 0
DWIDTH 15 0
BBX 15 15 0 0
BITMAP
6380
6380
66C0
46C0
0CC0
0C60
0C60
1860
1FF0
3830
3038
3018
6018
601C
F83E
ENDCHAR
STARTCHAR 0387
ENCODING 903
SWIDTH 315 0
DWIDTH 7 0
BBX 3 3 2 7
BITMAP
E0
E0
E0
ENDCHAR
STARTCHAR 0388
ENCODING 904
SWIDTH 765 0
DWIDTH 17 0
BBX 15 15 0 0
BITMAP
FFF8
CC18
CC0C
8C04
0C20
0C20
0C60
0FE0
0C60
0C20
0C22
0C06
0C04
0C1C
3FF8
ENDCHAR
STARTCHAR 0389
ENCODING 905
SWIDTH 855 0
DWIDTH 19 0
BBX 18 15 0 0
BITMAP
FF0FC0
CC0300
CC0300
8C0300
0C0300
0C0300
0C0300
0FFF00
0C0300
0C0300
0C0300
0C0300
0C0300
0C0300
3F0FC0
ENDCHAR
STARTCHAR 038A
ENCODING 906
SWIDTH 405 0
DWIDTH 9 0
BBX 8 15 0 0
BITMAP
FF
CC
CC
8C
0C
0C
0C
0C
0C
0C
0C
0C
0C
0C
3F
ENDCHAR
STARTCHAR 038C
ENCODING 908
SWIDTH 810 0
DWIDTH 18 0
BBX 17 15 0 0
BITMAP
C3F000
CE0C00
D80600
B00300
300300
600180
600180
600180
600180
600180
300300
300300
180600
0C0C00
03F000
ENDCHAR
STARTCHAR 038E
ENCODING 910
SWIDTH 720 0
DWIDTH 16 0
BBX 17 15 0 0
BITMAP
FE0F80
DC0600
CC0600
860C00
061800
033000
01F000
01E000
00C000
00C000
00C000
00C000
00C000
00C000
03F000
ENDCHAR
STARTCHAR 038F
ENCODING 911
SWIDTH 765 0
DWIDTH 17 0
BBX 17 15 0 0
BITMAP
C3F000
CC1C00
D80600
B00600
600300
600300
600300
600300
600300
300600
300600
9C1C80
C63180
622300
7E3F00
ENDCHAR
STARTCHAR 0390
ENCODING 912
SWIDTH 315 0
DWIDTH 7 0
BBX 8 16 0 0
BITMAP
18
DB
DB
D3
00
00
18
78
18
18
18
18
18
18
18
0E
ENDCHAR
STARTCHAR 0391
ENCODING 913
SWIDTH 675 0
DWIDTH 15 0
BBX 15 15 0 0
BITMAP
0380
0380
06C0
06C0
0CC0
0C60
0C60
1860
1FF0
3830
3038
3018
6018
601C
F83E
ENDCHAR
STARTCHAR 0392
ENCODING 914
SWIDTH 720 0
DWIDTH 16 0
BBX 14 15 1 0
BITMAP
FFE0
3030
3018
3018
3018
3018
3030
3FC0
3038
300C
300C
300C
300C
3038
FFE0
ENDCHAR
STARTCHAR 0393
ENCODING 915
SWIDTH 585 0
DWIDTH 13 0
BBX 12 15 1 0
BITMAP
FFE0
3060
3030
3010
3000
3000
3000
3000
3000
3000
3000
3000
3000
3000
FC00
ENDCHAR
STARTCHAR 0394
ENCODING 916
SWIDTH 585 0
DWIDTH 13 0
BBX 13 15 0 0
BITMAP
0700
0700
0700
0D80
0D80
18C0
18C0
18C0
3060
3060
6030
6030
6030
C018
FFF8
ENDCHAR
STARTCHAR 0395
ENCODING 917
SWIDTH 630 0
DWIDTH 14 0
BBX 13 15 1 0
BITMAP
FFE0
3060
3030
3010
3080
3080
3180
3F80
3180
3080
3088
3018
3010
3070
FFE0
ENDCHAR
STARTCHAR 0396
ENCODING 918
SWIDTH 630 0
DWIDTH 14 0
BBX 13 15 0 0
BITMAP
3FF0
6060
C060
80C0
0180
0380
0300
0600
0C00
1C00
1808
3018
6010
6070
FFF0
ENDCHAR
STARTCHAR 0397
ENCODING 919
SWIDTH 810 0
DWIDTH 18 0
BBX 16 15 1 0
BITMAP
FC3F
300C
300C
300C
300C
300C
300C
3FFC
300C
300C
300C
300C
300C
300C
FC3F
ENDCHAR
STARTCHAR 0398
ENCODING 920
SWIDTH 810 0
DWIDTH 18 0
BBX 16 15 1 0
BITMAP
07E0
1818
300C
6006
6816
C813
CFF3
CFF3
C813
C813
6006
6006
300C
1818
07E0
ENDCHAR
STARTCHAR 0399
ENCODING 921
SWIDTH 360 0
DWIDTH 8 0
BBX 6 15 1 0
BITMAP
FC
30
30
30
30
30
30
30
30
30
30
30
30
30
FC
ENDCHAR
STARTCHAR 039A
ENCODING 922
SWIDTH 720 0
DWIDTH 16 0
BBX 15 15 1 0
BITMAP
FC7C
3010
3020
3040
3080
3100
3300
3700
3980
30C0
3060
3060
3030
3038
FC7E
ENDCHAR
STARTCHAR 039B
ENCODING 923
SWIDTH 675 0
DWIDTH 15 0
BBX 15 15 0 0
BITMAP
0380
0380
06C0
06C0
06C0
0C60
0C60
1860
1830
1830
3018
3018
3018
601C
F03E
ENDCHAR
STARTCHAR 039C
ENCODING 924
SWIDTH 900 0
DWIDTH 20 0
BBX 19 15 1 0
BITMAP
FC03E0
3C0780
3C0780
360580
360D80
370D80
330980
331980
319980
319180
31B180
30F180
30E180
30E180
FC47E0
ENDCHAR
STARTCHAR 039D
ENCODING 925
SWIDTH 720 0
DWIDTH 16 0
BBX 14 15 1 0
BITMAP
F8FC
3C30
3C30
3630
3630
3230
3330
3130
31B0
30B0
30F0
30F0
3070
3070
FC30
ENDCHAR
STARTCHAR 039E
ENCODING 926
SWIDTH 720 0
DWIDTH 16 0
BBX 16 15 0 0
BITMAP
3FFC
300C
6006
4002
0810
0810
0FF0
0810
0810
0000
0000
8001
C003
700E
7FFE
ENDCHAR
STARTCHAR 039F
ENCODING 927
SWIDTH 810 0
DWIDTH 18 0
BBX 16 15 1 0
BITMAP
07E0
1C18
300C
6006
6006
C003
C003
C003
C003
C003
6006
6006
300C
1818
07E0
ENDCHAR
STARTCHAR 03A0
ENCODING 928
SWIDTH 765 0
DWIDTH 17 0
BBX 15 15 1 0
BITMAP
FFFE
3018
3018
3018
3018
3018
3018
3018
3018
3018
3018
3018
3018
3018
FC7E
ENDCHAR
STARTCHAR 03A1
ENCODING 929
SWIDTH 630 0
DWIDTH 14 0
BBX 13 15 1 0
BITMAP
FFC0
3030
3018
3018
3018
3018
3030
3FE0
3000
3000
3000
3000
3000
3000
FC00
ENDCHAR
STARTCHAR 03A3
ENCODING 931
SWIDTH 630 0
DWIDTH 14 0
BBX 13 15 1 0
BITMAP
FFE0
6060
7030
3010
1800
0C00
0600
0C00
0C00
1800
3800
3008
6018
6030
FFF0
ENDCHAR
STARTCHAR 03A4
ENCODING 932
SWIDTH 630 0
DWIDTH 14 0
BBX 14 16 0 0
BITMAP
2010
7FF8
6318
4308
8304
0300
0300
0300
0300
0300
0300
0300
0300
0300
0300
0FC0
ENDCHAR
STARTCHAR 03A5
ENCODING 933
SWIDTH 630 0
DWIDTH 14 0
BBX 15 15 0 0
BITMAP
F83E
7018
3018
1830
1860
0CC0
07C0
0780
0300
0300
0300
0300
0300
0300
0FC0
ENDCHAR
STARTCHAR 03A6
ENCODING 934
SWIDTH 810 0
DWIDTH 18 0
BBX 16 15 1 0
BITMAP
07E0
0180
0180
1FF8
718E
E183
C183
C183
C183
E183
718E
1FF8
0180
0180
07E0
ENDCHAR
STARTCHAR 03A7
ENCODING 935
SWIDTH 720 0
DWIDTH 16 0
BBX 16 15 0 0
BITMAP
7C3F
380C
1818
0C30
0660
0360
03C0
0180
03C0
0660
0C60
0C30
1818
300C
F83F
ENDCHAR
STARTCHAR 03A8
ENCODING 936
SWIDTH 855 0
DWIDTH 19 0
BBX 18 15 1 0
BITMAP
F3F3C0
30C300
30C300
30C300
30C300
30C300
30C300
30C300
18C600
0FFC00
00C000
00C000
00C000
00C000
03F000
ENDCHAR
STARTCHAR 03A9
ENCODING 937
SWIDTH 765 0
DWIDTH 17 0
BBX 17 15 0 0
BITMAP
03F000
0C1C00
180600
300600
600300
600300
600300
600300
600300
300600
300600
9C1C80
C63180
622300
7E3F00
ENDCHAR
STARTCHAR 03AA
ENCODING 938
SWIDTH 360 0
DWIDTH 8 0
BBX 6 19 1 0
BITMAP
D8
D8
D8
00
FC
30
30
30
30
30
30
30
30
30
30
30
30
30
FC
ENDCHAR
STARTCHAR 03AB
ENCODING 939
SWIDTH 630 0
DWIDTH 14 0
BBX 15 19 0 0
BITMAP
0D80
0D80
0D80
0000
F83E
7018
3018
1830
1860
0CC0
07C0
0780
0300
0300
0300
0300
0300
0300
0FC0
ENDCHAR
STARTCHAR 03AC
ENCODING 940
SWIDTH 630 0
DWIDTH 14 0
BBX 13 16 1 0
BITMAP
0C00
0C00
0C00
0800
0000
0000
1F20
70E0
6060
C060
C060
C060
C060
6060
71E0
1E78
ENDCHAR
STARTCHAR 03AD
ENCODING 941
SWIDTH 450 0
DWIDTH 10 0
BBX 9 16 1 0
BITMAP
1800
1800
1800
1000
0000
0000
7E00
C700
C300
6000
3800
E000
C000
C080
6100
3E00
ENDCHAR
STARTCHAR 03AE
ENCODING 942
SWIDTH 675 0
DWIDTH 15 0
BBX 12 21 1 -5
BITMAP
0300
0300
0300
0200
0000
0000
33E0
FC70
3030
3030
3030
3030
3030
3030
3030
FC30
0030
0030
0030
0030
0030
ENDCHAR
STARTCHAR 03AF
ENCODING 943
SWIDTH 315 0
DWIDTH 7 0
BBX 6 16 1 0
BITMAP
30
30
30
20
00
00
30
F0
30
30
30
30
30
30
30
1C
ENDCHAR
STARTCHAR 03B0
ENCODING 944
SWIDTH 630 0
DWIDTH 14 0
BBX 12 16 0 0
BITMAP
0300
1B60
1B60
1A60
0000
0000
F0F0
3030
3030
3030
3030
3030
3030
3030
1860
0FC0
ENDCHAR
STARTCHAR 03B1
ENCODING 945
SWIDTH 630 0
DWIDTH 14 0
BBX 13 10 1 0
BITMAP
1F20
70E0
6060
C060
C060
C060
C060
6060
71E0
1E78
ENDCHAR
STARTCHAR 03B2
ENCODING 946
SWIDTH 585 0
DWIDTH 13 0
BBX 10 21 2 -5
BITMAP
3E00
6300
C180
C180
C180
C100
C300
DE00
C180
C0C0
C0C0
C0C0
C0C0
C0C0
E180
DF00
C000
C000
C000
C000
C000
ENDCHAR
STARTCHAR 03B3
ENCODING 947
SWIDTH 495 0
DWIDTH 11 0
BBX 11 15 0 -5
BITMAP
E0E0
70E0
30E0
30C0
18C0
1980
0D80
0F00
0F00
0600
0600
0600
0600
0600
0600
ENDCHAR
STARTCHAR 03B4
ENCODING 948
SWIDTH 540 0
DWIDTH 12 0
BBX 10 16 1 0
BITMAP
1F00
3380
6180
6000
6000
3000
0E00
3180
6180
C0C0
C0C0
C0C0
C0C0
4180
6180
3E00
ENDCHAR
STARTCHAR 03B5
ENCODING 949
SWIDTH 450 0
DWIDTH 10 0
BBX 9 10 1 0
BITMAP
7E00
C700
C300
6000
3800
E000
C000
C080
6100
3E00
ENDCHAR
STARTCHAR 03B6
ENCODING 950
SWIDTH 360 0
DWIDTH 8 0
BBX 8 21 1 -5
BITMAP
C1
FE
0C
18
10
30
60
60
C0
C0
C0
C0
C0
70
3C
0E
07
03
03
66
3C
ENDCHAR
STARTCHAR 03B7
ENCODING 951
SWIDTH 675 0
DWIDTH 15 0
BBX 12 15 1 -5
BITMAP
33E0
FC70
3030
3030
3030
3030
3030
3030
3030
FC30
0030
0030
0030
0030
0030
ENDCHAR
STARTCHAR 03B8
ENCODING 952
SWIDTH 585 0
DWIDTH 13 0
BBX 11 16 1 0
BITMAP
1F00
3180
60C0
60C0
C060
C060
C060
FFE0
C060
C060
C060
C060
60C0
60C0
3180
1F00
ENDCHAR
STARTCHAR 03B9
ENCODING 953
SWIDTH 315 0
DWIDTH 7 0
BBX 6 10 1 0
BITMAP
30
F0
30
30
30
30
30
30
30
1C
ENDCHAR
STARTCHAR 03BA
ENCODING 954
SWIDTH 630 0
DWIDTH 14 0
BBX 13 10 1 0
BITMAP
31F0
F0C0
3380
3600
3E00
3B00
3180
30C0
3060
FC38
ENDCHAR
STARTCHAR 03BB
ENCODING 955
SWIDTH 540 0
DWIDTH 12 0
BBX 11 16 0 0
BITMAP
1800
7800
0C00
0C00
0C00
0E00
0E00
1E00
1B00
1B00
1300
3180
3180
3180
61C0
F3E0
ENDCHAR
STARTCHAR 03BC
ENCODING 956
SWIDTH 675 0
DWIDTH 15 0
BBX 15 15 0 -5
BITMAP
F078
3018
3018
3018
3018
3018
3018
3018
3878
3F9E
3000
3000
3000
3000
3000
ENDCHAR
STARTCHAR 03BD
ENCODING 957
SWIDTH 495 0
DWIDTH 11 0
BBX 11 10 0 0
BITMAP
E0E0
70E0
3060
3040
18C0
1980
0D80
0D00
0700
0700
ENDCHAR
STARTCHAR 03BE
ENCODING 958
SWIDTH 405 0
DWIDTH 9 0
BBX 8 21 1 -5
BITMAP
1E
73
60
60
60
18
1F
63
40
C0
C0
C0
E0
70
3C
0E
03
03
03
66
3C
ENDCHAR
STARTCHAR 03BF
ENCODING 959
SWIDTH 540 0
DWIDTH 12 0
BBX 10 10 1 0
BITMAP
1E00
6180
6180
C0C0
C0C0
C0C0
C0C0
4180
6180
3E00
ENDCHAR
STARTCHAR 03C0
ENCODING 960
SWIDTH 675 0
DWIDTH 15 0
BBX 13 10 1 0
BITMAP
FFF8
3060
3060
3060
3060
3060
3060
3060
3060
FC38
ENDCHAR
STARTCHAR 03C1
ENCODING 961
SWIDTH 585 0
DWIDTH 13 0
BBX 11 15 1 -5
BITMAP
1F00
31C0
60C0
C060
C060
C060
C060
E0C0
F1C0
DF00
C000
C000
C000
C000
C000
ENDCHAR
STARTCHAR 03C2
ENCODING 962
SWIDTH 495 0
DWIDTH 11 0
BBX 11 15 0 -5
BITMAP
1F80
31C0
60E0
C060
C000
C000
E000
7800
3E00
0F80
01C0
00C0
00C0
6180
3E00
ENDCHAR
STARTCHAR 03C3
ENCODING 963
SWIDTH 585 0
DWIDTH 13 0
BBX 12 10 1 0
BITMAP
1FF0
71C0
60C0
C060
C060
C060
C060
60C0
71C0
1F00
ENDCHAR
STARTCHAR 03C4
ENCODING 964
SWIDTH 405 0
DWIDTH 9 0
BBX 9 10 0 0
BITMAP
FF00
1800
1800
1800
1800
1800
1800
1800
1880
0F00
ENDCHAR
STARTCHAR 03C5
ENCODING 965
SWIDTH 630 0
DWIDTH 14 0
BBX 12 10 0 0
BITMAP
F0F0
3030
3030
3030
3030
3030
3030
3030
1860
0FC0
ENDCHAR
STARTCHAR 03C6
ENCODING 966
SWIDTH 675 0
DWIDTH 15 0
BBX 14 15 0 -5
BITMAP
18F0
6398
C30C
C30C
C30C
C30C
C30C
6318
6338
1FE0
0300
0300
0300
0300
0300
ENDCHAR
STARTCHAR 03C7
ENCODING 967
SWIDTH 585 0
DWIDTH 13 0
BBX 13 10 0 0
BITMAP
E0F8
3060
18C0
0D80
0700
0700
0D80
18C0
3070
F038
ENDCHAR
STARTCHAR 03C8
ENCODING 968
SWIDTH 765 0
DWIDTH 17 0
BBX 16 15 0 -5
BITMAP
F0CF
30C3
30C3
30C3
30C3
30C3
30C3
30C3
18C6
0FFC
00C0
00C0
00C0
00C0
00C0
ENDCHAR
STARTCHAR 03C9
ENCODING 969
SWIDTH 675 0
DWIDTH 15 0
BBX 14 10 0 0
BITMAP
1CE0
7038
6018
C00C
C30C
C30C
C30C
C30C
6798
3CF0
ENDCHAR
STARTCHAR 03CA
ENCODING 970
SWIDTH 315 0
DWIDTH 7 0
BBX 6 15 1 0
BITMAP
D8
D8
D8
00
00
30
F0
30
30
30
30
30
30
30
1C
ENDCHAR
STARTCHAR 03CB
ENCODING 971
SWIDTH 630 0
DWIDTH 14 0
BBX 12 15 0 0
BITMAP
0D80
0D80
0D80
0000
0000
F0F0
3030
3030
3030
3030
3030
3030
3030
1860
0FC0
ENDCHAR
STARTCHAR 03CC
ENCODING 972
SWIDTH 540 0
DWIDTH 12 0
BBX 10 16 1 0
BITMAP
0C00
0C00
0C00
0800
0000
0000
1E00
6180
6180
C0C0
C0C0
C0C0
C0C0
4180
6180
3E00
ENDCHAR
STARTCHAR 03CD
ENCODING 973
SWIDTH 630 0
DWIDTH 14 0
BBX 12 16 0 0
BITMAP
0300
0300
0300
0200
0000
0000
F0F0
3030
3030
3030
3030
3030
3030
3030
1860
0FC0
ENDCHAR
STARTCHAR 03CE
ENCODING 974
SWIDTH 675 0
DWIDTH 15 0
BBX 14 16 0 0
BITMAP
0300
0300
0300
0200
0000
0000
1CE0
7038
6018
C00C
C30C
C30C
C30C
C30C
6798
3CF0
ENDCHAR
STARTCHAR 0401
ENCODING 1025
SWIDTH 630 0
DWIDTH 14 0
BBX 13 19 1 0
BITMAP
1B00
1B00
1B00
0000
FFE0
3060
3030
3010
3080
3080
3180
3F80
3180
3080
3088
3018
3010
3070
FFE0
ENDCHAR
STARTCHAR 0402
ENCODING 1026
SWIDTH 720 0
DWIDTH 16 0
BBX 16 19 0 -3
BITMAP
2010
7FF8
6318
8304
0300
0300
033C
03C6
0306
0303
0303
0303
0303
0303
0303
0FC2
0006
0044
0038
ENDCHAR
STARTCHAR 0403
ENCODING 1027
SWIDTH 585 0
DWIDTH 13 0
BBX 12 19 1 0
BITMAP
0180
0380
0600
0000
FFE0
3060
3030
3010
3000
3000
3000
3000
3000
3000
3000
3000
3000
3000
FC00
ENDCHAR
STARTCHAR 0404
ENCODING 1028
SWIDTH 720 0
DWIDTH 16 0
BBX 14 15 1 0
BITMAP
07C8
1838
300C
6004
6000
C000
C000
FF80
C000
C000
6000
6004
3008
1830
07C0
ENDCHAR
STARTCHAR 0405
ENCODING 1029
SWIDTH 675 0
DWIDTH 15 0
BBX 12 15 2 0
BITMAP
1F40
61C0
C0E0
C060
C020
F000
7E00
1F80
03E0
0070
8030
C030
E030
70E0
4F80
ENDCHAR
STARTCHAR 0406
ENCODING 1030
SWIDTH 360 0
DWIDTH 8 0
BBX 6 15 1 0
BITMAP
FC
30
30
30
30
30
30
30
30
30
30
30
30
30
FC
ENDCHAR
STARTCHAR 0407
ENCODING 1031
SWIDTH 360 0
DWIDTH 8 0
BBX 6 19 1 0
BITMAP
D8
D8
D8
00
FC
30
30
30
30
30
30
30
30
30
30
30
30
30
FC
ENDCHAR
STARTCHAR 0408
ENCODING 1032
SWIDTH 585 0
DWIDTH 13 0
BBX 13 15 0 0
BITMAP
01F8
0060
0060
0060
0060
0060
0060
0060
0060
C060
C060
C060
C0C0
61C0
1F00
ENDCHAR
STARTCHAR 0409
ENCODING 1033
SWIDTH 855 0
DWIDTH 19 0
BBX 19 15 0 0
BITMAP
1FF800
066000
066000
066000
0C6000
0C6000
0C7F80
1860C0
1860E0
186060
306060
306060
306060
6060C0
F1FF00
ENDCHAR
STARTCHAR 040A
ENCODING 1034
SWIDTH 945 0
DWIDTH 21 0
BBX 20 15 1 0
BITMAP
FC7E00
301800
301800
301800
301800
301800
301800
3FFFC0
301860
301830
301830
301830
301830
301860
FC7FC0
ENDCHAR
STARTCHAR 040B
ENCODING 1035
SWIDTH 810 0
DWIDTH 18 0
BBX 18 16 0 0
BITMAP
201000
7FF800
631800
830400
030000
030000
033E00
03C700
030300
030300
030300
030300
030300
030300
030300
0FCFC0
ENDCHAR
STARTCHAR 040C
ENCODING 1036
SWIDTH 720 0
DWIDTH 16 0
BBX 15 19 1 0
BITMAP
0180
0380
0600
0000
FC7C
3010
3020
3040
3080
3100
3300
3700
3980
30C0
3060
3060
3030
3038
FC7E
ENDCHAR
STARTCHAR 040E
ENCODING 1038
SWIDTH 675 0
DWIDTH 15 0
BBX 15 20 0 0
BITMAP
1830
1830
0C60
07C0
0000
FC1E
300C
3018
1818
0C30
0C30
0660
0360
03C0
01C0
0180
0180
0300
3300
1E00
ENDCHAR
STARTCHAR 040F
ENCODING 1039
SWIDTH 765 0
DWIDTH 17 0
BBX 15 18 1 -3
BITMAP
FC7E
3018
3018
3018
3018
3018
3018
3018
3018
3018
3018
3018
3018
3018
FFFE
0380
0100
0100
ENDCHAR
STARTCHAR 0410
ENCODING 1040
SWIDTH 675 0
DWIDTH 15 0
BBX 15 15 0 0
BITMAP
0380
0380
06C0
06C0
0CC0
0C60
0C60
1860
1FF0
3830
3038
3018
6018
601C
F83E
ENDCHAR
STARTCHAR 0411
ENCODING 1041
SWIDTH 720 0
DWIDTH 16 0
BBX 14 15 1 0
BITMAP
FFF0
3030
3018
3008
3000
3000
3000
3FE0
3018
300C
300C
300C
300C
3018
FFE0
ENDCHAR
STARTCHAR 0412
ENCODING 1042
SWIDTH 720 0
DWIDTH 16 0
BBX 14 15 1 0
BITMAP
FFE0
3030
3018
3018
3018
3018
3030
3FC0
3038
300C
300C
300C
300C
3038
FFE0
ENDCHAR
STARTCHAR 0413
ENCODING 1043
SWIDTH 585 0
DWIDTH 13 0
BBX 12 15 1 0
BITMAP
FFE0
3060
3030
3010
3000
3000
3000
3000
3000
3000
3000
3000
3000
3000
FC00
ENDCHAR
STARTCHAR 0414
ENCODING 1044
SWIDTH 765 0
DWIDTH 17 0
BBX 18 18 -2 -3
BITMAP
07FF80
018600
018600
018600
030600
030600
030600
030600
060600
060600
060600
0C0600
0C0600
1C0600
7FFF80
600180
C000C0
800040
ENDCHAR
STARTCHAR 0415
ENCODING 1045
SWIDTH 630 0
DWIDTH 14 0
BBX 13 15 1 0
BITMAP
FFE0
3060
3030
3010
3080
3080
3180
3F80
3180
3080
3088
3018
3010
3070
FFE0
ENDCHAR
STARTCHAR 0416
ENCODING 1046
SWIDTH 1035 0
DWIDTH 23 0
BBX 22 15 0 0
BITMAP
7CFCF8
183060
0C30C0
063180
073380
033300
01B600
01FE00
037B00
063180
0C30C0
0C30C0
183060
303030
FCFCFC
ENDCHAR
STARTCHAR 0417
ENCODING 1047
SWIDTH 675 0
DWIDTH 15 0
BBX 13 15 1 0
BITMAP
4F80
7060
C030
8030
0030
0030
0060
07C0
0070
0018
0018
8018
6038
3070
0FC0
ENDCHAR
STARTCHAR 0418
ENCODING 1048
SWIDTH 810 0
DWIDTH 18 0
BBX 16 15 1 0
BITMAP
FC3F
300C
300C
301C
303C
306C
30CC
318C
318C
330C
360C
3C0C
380C
300C
FC3F
ENDCHAR
STARTCHAR 0419
ENCODING 1049
SWIDTH 810 0
DWIDTH 18 0
BBX 16 20 1 0
BITMAP
0C30
0C30
0660
03C0
0000
FC3F
300C
300C
301C
303C
306C
30CC
318C
318C
330C
360C
3C0C
380C
300C
FC3F
ENDCHAR
STARTCHAR 041A
ENCODING 1050
SWIDTH 720 0
DWIDTH 16 0
BBX 15 15 1 0
BITMAP
FC7C
3010
3020
3040
3080
3100
3300
3700
3980
30C0
3060
3060
3030
3038
FC7E
ENDCHAR
STARTCHAR 041B
ENCODING 1051
SWIDTH 675 0
DWIDTH 15 0
BBX 15 15 0 0
BITMAP
0380
0380
06C0
06C0
06C0
0C60
0C60
1860
1830
1830
3018
3018
3018
601C
F03E
ENDCHAR
STARTCHAR 041C
ENCODING 1052
SWIDTH 900 0
DWIDTH 20 0
BBX 19 15 1 0
BITMAP
FC03E0
3C0780
3C0780
360580
360D80
370D80
330980
331980
319980
319180
31B180
30F180
30E180
30E180
FC47E0
ENDCHAR
STARTCHAR 041D
ENCODING 1053
SWIDTH 810 0
DWIDTH 18 0
BBX 16 15 1 0
BITMAP
FC3F
300C
300C
300C
300C
300C
300C
3FFC
300C
300C
300C
300C
300C
300C
FC3F
ENDCHAR
STARTCHAR 041E
ENCODING 1054
SWIDTH 810 0
DWIDTH 18 0
BBX 16 15 1 0
BITMAP
07E0
1C18
300C
6006
6006
C003
C003
C003
C003
C003
6006
6006
300C
1818
07E0
ENDCHAR
STARTCHAR 041F
ENCODING 1055
SWIDTH 765 0
DWIDTH 17 0
BBX 15 15 1 0
BITMAP
FFFE
3018
3018
3018
3018
3018
3018
3018
3018
3018
3018
3018
3018
3018
FC7E
ENDCHAR
STARTCHAR 0420
ENCODING 1056
SWIDTH 630 0
DWIDTH 14 0
BBX 13 15 1 0
BITMAP
FFC0
3030
3018
3018
3018
3018
3030
3FE0
3000
3000
3000
3000
3000
3000
FC00
ENDCHAR
STARTCHAR 0421
ENCODING 1057
SWIDTH 720 0
DWIDTH 16 0
BBX 14 15 1 0
BITMAP
0FD0
1870
3010
6018
6008
C000
C000
C000
C000
C000
6000
6004
3008
1830
0FC0
ENDCHAR
STARTCHAR 0422
ENCODING 1058
SWIDTH 630 0
DWIDTH 14 0
BBX 14 16 0 0
BITMAP
2010
7FF8
6318
4308
8304
0300
0300
0300
0300
0300
0300
0300
0300
0300
0300
0FC0
ENDCHAR
STARTCHAR 0423
ENCODING 1059
SWIDTH 675 0
DWIDTH 15 0
BBX 15 15 0 0
BITMAP
FC1E
300C
3018
1818
0C30
0C30
0660
0360
03C0
01C0
0180
0180
0300
3300
1E00
ENDCHAR
STARTCHAR 0424
ENCODING 1060
SWIDTH 810 0
DWIDTH 18 0
BBX 16 15 1 0
BITMAP
07E0
0180
0180
1FF8
718E
C183
C183
C183
C183
C183
718E
1FF8
0180
0180
07E0
ENDCHAR
STARTCHAR 0425
ENCODING 1061
SWIDTH 720 0
DWIDTH 16 0
BBX 16 15 0 0
BITMAP
7C3F
380C
1818
0C30
0660
0360
03C0
0180
03C0
0660
0C60
0C30
1818
300C
F83F
ENDCHAR
STARTCHAR 0426
ENCODING 1062
SWIDTH 765 0
DWIDTH 17 0
BBX 16 18 1 -3
BITMAP
FC7E
3018
3018
3018
3018
3018
3018
3018
3018
3018
3018
3018
3018
3018
FFFE
0006
0003
0001
ENDCHAR
STARTCHAR 0427
ENCODING 1063
SWIDTH 720 0
DWIDTH 16 0
BBX 15 15 0 0
BITMAP
FC7E
3018
3018
3018
3018
3018
3018
1818
0FF8
0018
0018
0018
0018
0018
007E
ENDCHAR
STARTCHAR 0428
ENCODING 1064
SWIDTH 1080 0
DWIDTH 24 0
BBX 22 15 1 0
BITMAP
FCFCFC
303030
303030
303030
303030
303030
303030
303030
303030
303030
303030
303030
303030
303030
FFFFFC
ENDCHAR
STARTCHAR 0429
ENCODING 1065
SWIDTH 1035 0
DWIDTH 23 0
BBX 23 18 0 -3
BITMAP
FCFCFC
303030
303030
303030
303030
303030
303030
303030
303030
303030
303030
303030
303030
303030
FFFFFC
00000C
000006
000002
ENDCHAR
STARTCHAR 042A
ENCODING 1066
SWIDTH 765 0
DWIDTH 17 0
BBX 17 16 0 0
BITMAP
200000
7FC000
630000
830000
030000
030000
030000
03FE00
030300
030380
030180
030180
030180
030180
030300
0FFC00
ENDCHAR
STARTCHAR 042B
ENCODING 1067
SWIDTH 945 0
DWIDTH 21 0
BBX 20 15 1 0
BITMAP
FC03F0
3000C0
3000C0
3000C0
3000C0
3000C0
3FE0C0
3030C0
3038C0
3018C0
3018C0
3018C0
3018C0
3030C0
FFC3F0
ENDCHAR
STARTCHAR 042C
ENCODING 1068
SWIDTH 630 0
DWIDTH 14 0
BBX 13 15 1 0
BITMAP
FC00
3000
3000
3000
3000
3000
3FE0
3030
3038
3018
3018
3018
3018
3030
FFC0
ENDCHAR
STARTCHAR 042D
ENCODING 1069
SWIDTH 720 0
DWIDTH 16 0
BBX 14 15 1 0
BITMAP
5FC0
7060
C030
8018
000C
000C
000C
07FC
000C
000C
0008
8018
4030
3060
0FC0
ENDCHAR
STARTCHAR 042E
ENCODING 1070
SWIDTH 1125 0
DWIDTH 25 0
BBX 23 15 1 0
BITMAP
FC07C0
301830
303018
30600C
306004
30C006
30C006
3FC006
30C006
30C006
30400C
30600C
303018
301830
FC07C0
ENDCHAR
STARTCHAR 042F
ENCODING 1071
SWIDTH 720 0
DWIDTH 16 0
BBX 15 15 0 0
BITMAP
1FFE
3018
6018
6018
6018
6018
3018
0FF8
0318
0318
0618
0C18
1818
3018
E07E
ENDCHAR
STARTCHAR 0430
ENCODING 1072
SWIDTH 585 0
DWIDTH 13 0
BBX 12 10 1 0
BITMAP
1F00
31C0
60C0
60C0
0FC0
78C0
C0C0
C0C0
E3C0
7C70
ENDCHAR
STARTCHAR 0431
ENCODING 1073
SWIDTH 540 0
DWIDTH 12 0
BBX 10 16 1 0
BITMAP
0040
1FC0
3F80
6000
4000
8000
9E00
A180
E180
C0C0
C0C0
C0C0
C0C0
4180
6180
1E00
ENDCHAR
STARTCHAR 0432
ENCODING 1074
SWIDTH 585 0
DWIDTH 13 0
BBX 11 10 1 0
BITMAP
FFC0
3060
3060
30C0
3F80
30E0
3060
3060
30C0
FF80
ENDCHAR
STARTCHAR 0433
ENCODING 1075
SWIDTH 450 0
DWIDTH 10 0
BBX 9 10 1 0
BITMAP
FF00
3100
3180
3080
3000
3000
3000
3000
3000
FC00
ENDCHAR
STARTCHAR 0434
ENCODING 1076
SWIDTH 585 0
DWIDTH 13 0
BBX 13 13 0 -3
BITMAP
1FF0
06C0
06C0
0CC0
0CC0
0CC0
18C0
18C0
38C0
7FF0
6030
C018
8008
ENDCHAR
STARTCHAR 0435
ENCODING 1077
SWIDTH 540 0
DWIDTH 12 0
BBX 10 10 1 0
BITMAP
1F00
6180
40C0
FFC0
C000
C000
C000
6040
7180
1F00
ENDCHAR
STARTCHAR 0436
ENCODING 1078
SWIDTH 855 0
DWIDTH 19 0
BBX 20 10 0 0
BITMAP
F9F9F0
3861C0
0E6700
076E00
07FE00
0CF300
186180
3861C0
7060E0
F9F9F0
ENDCHAR
STARTCHAR 0437
ENCODING 1079
SWIDTH 495 0
DWIDTH 11 0
BBX 9 10 1 0
BITMAP
3E00
6300
4300
8600
1E00
0380
0180
8180
6380
3E00
ENDCHAR
STARTCHAR 0438
ENCODING 1080
SWIDTH 630 0
DWIDTH 14 0
BBX 13 10 0 0
BITMAP
FDF8
3060
30E0
3160
3260
3460
3860
3060
3060
FDF8
ENDCHAR
STARTCHAR 0439
ENCODING 1081
SWIDTH 630 0
DWIDTH 14 0
BBX 13 15 0 0
BITMAP
18C0
18C0
0F80
0000
0000
FDF8
3060
30E0
3160
3260
3460
3860
3060
3060
FDF8
ENDCHAR
STARTCHAR 043A
ENCODING 1082
SWIDTH 630 0
DWIDTH 14 0
BBX 13 10 1 0
BITMAP
FDF0
30C0
3380
3600
3E00
3B00
3180
30C0
3060
FDF8
ENDCHAR
STARTCHAR 043B
ENCODING 1083
SWIDTH 495 0
DWIDTH 11 0
BBX 11 10 0 0
BITMAP
0E00
0E00
1B00
1B00
1B00
3180
3180
3180
60C0
F3E0
ENDCHAR
STARTCHAR 043C
ENCODING 1084
SWIDTH 765 0
DWIDTH 17 0
BBX 15 10 1 0
BITMAP
FC7E
3C78
3C78
3458
36D8
36D8
36D8
3298
3398
FBBE
ENDCHAR
STARTCHAR 043D
ENCODING 1085
SWIDTH 630 0
DWIDTH 14 0
BBX 12 10 1 0
BITMAP
FFF0
30C0
30C0
30C0
3FC0
30C0
30C0
30C0
30C0
FFF0
ENDCHAR
STARTCHAR 043E
ENCODING 1086
SWIDTH 540 0
DWIDTH 12 0
BBX 10 10 1 0
BITMAP
1E00
6180
6180
C0C0
C0C0
C0C0
C0C0
4180
6180
3E00
ENDCHAR
STARTCHAR 043F
ENCODING 1087
SWIDTH 630 0
DWIDTH 14 0
BBX 12 10 1 0
BITMAP
FFF0
30C0
30C0
30C0
30C0
30C0
30C0
30C0
30C0
FFF0
ENDCHAR
STARTCHAR 0440
ENCODING 1088
SWIDTH 630 0
DWIDTH 14 0
BBX 12 15 1 -5
BITMAP
33C0
F460
3870
3030
3030
3030
3030
3860
34E0
3380
3000
3000
3000
3000
FC00
ENDCHAR
STARTCHAR 0441
ENCODING 1089
SWIDTH 495 0
DWIDTH 11 0
BBX 10 10 1 0
BITMAP
1F00
7180
60C0
C0C0
C000
C000
C000
6040
7180
1F00
ENDCHAR
STARTCHAR 0442
ENCODING 1090
SWIDTH 540 0
DWIDTH 12 0
BBX 12 11 0 0
BITMAP
2040
7FE0
4620
8610
0600
0600
0600
0600
0600
0600
1F80
ENDCHAR
STARTCHAR 0443
ENCODING 1091
SWIDTH 540 0
DWIDTH 12 0
BBX 12 15 0 -5
BITMAP
F8F0
7040
3040
3080
1880
1880
0D00
0D00
0600
0600
0400
0400
0400
C800
F000
ENDCHAR
STARTCHAR 0444
ENCODING 1092
SWIDTH 855 0
DWIDTH 19 0
BBX 18 21 0 -5
BITMAP
00C000
03C000
00C000
00C000
00C000
00C000
3CCF00
63F180
C0C0C0
C0C0C0
C0C0C0
C0C0C0
C0C0C0
C0C0C0
61E180
3EDF00
00C000
00C000
00C000
00C000
03F000
ENDCHAR
STARTCHAR 0445
ENCODING 1093
SWIDTH 540 0
DWIDTH 12 0
BBX 12 10 0 0
BITMAP
FCF0
3060
18C0
0D80
0700
0700
0F80
1980
30C0
F9F0
ENDCHAR
STARTCHAR 0446
ENCODING 1094
SWIDTH 675 0
DWIDTH 15 0
BBX 14 13 1 -3
BITMAP
FDF8
3060
3060
3060
3060
3060
3060
3060
3060
FFF8
0018
000C
0004
ENDCHAR
STARTCHAR 0447
ENCODING 1095
SWIDTH 585 0
DWIDTH 13 0
BBX 12 10 0 0
BITMAP
FBF0
30C0
30C0
30C0
30C0
1FC0
00C0
00C0
00C0
03F0
ENDCHAR
STARTCHAR 0448
ENCODING 1096
SWIDTH 945 0
DWIDTH 21 0
BBX 20 10 1 0
BITMAP
FDFBF0
3060C0
3060C0
3060C0
3060C0
3060C0
3060C0
3060C0
3060C0
FFFFF0
ENDCHAR
STARTCHAR 0449
ENCODING 1097
SWIDTH 945 0
DWIDTH 21 0
BBX 21 13 1 -3
BITMAP
FDFBF0
3060C0
3060C0
3060C0
3060C0
3060C0
3060C0
3060C0
3060C0
FFFFF0
000030
000018
000008
ENDCHAR
STARTCHAR 044A
ENCODING 1098
SWIDTH 585 0
DWIDTH 13 0
BBX 12 11 0 0
BITMAP
2000
7F80
4600
8600
0600
07E0
0670
0630
0630
0660
1FC0
ENDCHAR
STARTCHAR 044B
ENCODING 1099
SWIDTH 810 0
DWIDTH 18 0
BBX 17 10 0 0
BITMAP
FC1F80
300600
300600
300600
3FC600
30E600
306600
306600
30C600
FF9F80
ENDCHAR
STARTCHAR 044C
ENCODING 1100
SWIDTH 540 0
DWIDTH 12 0
BBX 10 10 1 0
BITMAP
FC00
3000
3000
3000
3F80
31C0
30C0
30C0
31C0
FF00
ENDCHAR
STARTCHAR 044D
ENCODING 1101
SWIDTH 495 0
DWIDTH 11 0
BBX 9 10 1 0
BITMAP
3E00
4300
4180
8180
1F80
0180
0180
8100
4300
3E00
ENDCHAR
STARTCHAR 044E
ENCODING 1102
SWIDTH 855 0
DWIDTH 19 0
BBX 17 10 1 0
BITMAP
FC3C00
30C300
31C300
318180
3F8180
318180
318180
308300
30C300
FC3C00
ENDCHAR
STARTCHAR 044F
ENCODING 1103
SWIDTH 585 0
DWIDTH 13 0
BBX 12 10 0 0
BITMAP
1FF0
70C0
60C0
60C0
70C0
1FC0
0CC0
18C0
30C0
FBF0
ENDCHAR
STARTCHAR 0451
ENCODING 1105
SWIDTH 540 0
DWIDTH 12 0
BBX 10 15 1 0
BITMAP
3600
3600
3600
0000
0000
1F00
6180
40C0
FFC0
C000
C000
C000
6040
7180
1F00
ENDCHAR
STARTCHAR 0452
ENCODING 1106
SWIDTH 585 0
DWIDTH 13 0
BBX 11 19 1 -3
BITMAP
3000
F000
3000
3000
FF80
3000
3780
38C0
3040
3060
3060
3060
3060
3060
3060
FC60
00C0
09C0
0780
ENDCHAR
STARTCHAR 0453
ENCODING 1107
SWIDTH 450 0
DWIDTH 10 0
BBX 9 15 1 0
BITMAP
0C00
1C00
3000
0000
0000
FF00
3100
3180
3080
3000
3000
3000
3000
3000
FC00
ENDCHAR
STARTCHAR 0454
ENCODING 1108
SWIDTH 495 0
DWIDTH 11 0
BBX 9 10 1 0
BITMAP
3E00
6300
4100
C080
FC00
C000
C000
6080
6100
3E00
ENDCHAR
STARTCHAR 0455
ENCODING 1109
SWIDTH 495 0
DWIDTH 11 0
BBX 9 10 1 0
BITMAP
7A00
C700
C300
E100
7C00
0F00
8380
C180
6180
5E00
ENDCHAR
STARTCHAR 0456
ENCODING 1110
SWIDTH 315 0
DWIDTH 7 0
BBX 6 16 1 0
BITMAP
30
30
00
00
00
00
30
F0
30
30
30
30
30
30
30
FC
ENDCHAR
STARTCHAR 0457
ENCODING 1111
SWIDTH 315 0
DWIDTH 7 0
BBX 6 15 1 0
BITMAP
D8
D8
D8
00
00
30
F0
30
30
30
30
30
30
30
FC
ENDCHAR
STARTCHAR 0458
ENCODING 1112
SWIDTH 315 0
DWIDTH 7 0
BBX 7 21 -2 -5
BITMAP
06
06
00
00
00
00
06
1E
06
06
06
06
06
06
06
06
06
06
06
C4
78
ENDCHAR
STARTCHAR 0459
ENCODING 1113
SWIDTH 720 0
DWIDTH 16 0
BBX 15 10 0 0
BITMAP
7FE0
1980
1980
3180
31FC
318E
3186
3186
618C
F7F8
ENDCHAR
STARTCHAR 045A
ENCODING 1114
SWIDTH 810 0
DWIDTH 18 0
BBX 16 10 1 0
BITMAP
FDF8
3060
3060
3060
3FFE
3063
3063
3063
3067
FDFC
ENDCHAR
STARTCHAR 045B
ENCODING 1115
SWIDTH 675 0
DWIDTH 15 0
BBX 14 16 1 0
BITMAP
3000
F000
3000
3000
FFC0
3000
33E0
3C70
3030
3030
3030
3030
3030
3030
3030
FCFC
ENDCHAR
STARTCHAR 045C
ENCODING 1116
SWIDTH 630 0
DWIDTH 14 0
BBX 13 15 1 0
BITMAP
0300
0700
0C00
0000
0000
FDF0
30C0
3380
3600
3E00
3B00
3180
30C0
3060
FDF8
ENDCHAR
STARTCHAR 045E
ENCODING 1118
SWIDTH 540 0
DWIDTH 12 0
BBX 12 20 0 -5
BITMAP
30C0
39C0
0F00
0000
0000
F8F0
7040
3040
3080
1880
1880
0D00
0D00
0600
0600
0400
0400
0800
C800
F000
ENDCHAR
STARTCHAR 045F
ENCODING 1119
SWIDTH 630 0
DWIDTH 14 0
BBX 13 13 0 -3
BITMAP
FDF8
3060
3060
3060
3060
3060
3060
3060
3060
FFF8
0700
0200
0200
ENDCHAR
STARTCHAR 0490
ENCODING 1168
SWIDTH 495 0
DWIDTH 11 0
BBX 10 18 1 0
BITMAP
0040
0080
0180
FF00
3000
3000
3000
3000
3000
3000
3000
3000
3000
3000
3000
3000
3000
FC00
ENDCHAR
STARTCHAR 0491
ENCODING 1169
SWIDTH 450 0
DWIDTH 10 0
BBX 9 13 1 0
BITMAP
0080
0180
0300
FF00
3000
3000
3000
3000
3000
3000
3000
3000
FC00
ENDCHAR
STARTCHAR 1E80
ENCODING 7808
SWIDTH 945 0
DWIDTH 21 0
BBX 21 19 0 0
BITMAP
006000
007000
001800
000000
FDFCF8
306030
303030
183060
183060
183060
1C78C0
0C78C0
0C78C0
0ECD80
06CD80
06CD80
078780
038700
038700
ENDCHAR
STARTCHAR 1E81
ENCODING 7809
SWIDTH 765 0
DWIDTH 17 0
BBX 17 15 0 0
BITMAP
030000
038000
00C000
000000
000000
FBEF80
618200
618200
31C400
31C400
196800
1A6800
1A6800
0C3000
0C3000
ENDCHAR
STARTCHAR 1E82
ENCODING 7810
SWIDTH 945 0
DWIDTH 21 0
BBX 21 19 0 0
BITMAP
001800
003800
006000
000000
FDFCF8
306030
303030
183060
183060
183060
1C78C0
0C78C0
0C78C0
0ECD80
06CD80
06CD80
078780
038700
038700
ENDCHAR
STARTCHAR 1E83
ENCODING 7811
SWIDTH 765 0
DWIDTH 17 0
BBX 17 15 0 0
BITMAP
00C000
01C000
030000
000000
000000
FBEF80
618200
618200
31C400
31C400
196800
1A6800
1A6800
0C3000
0C3000
ENDCHAR
STARTCHAR 1E84
ENCODING 7812
SWIDTH 945 0
DWIDTH 21 0
BBX 21 19 0 0
BITMAP
00D800
00D800
00D800
000000
FDFCF8
306030
303030
183060
183060
183060
1C78C0
0C78C0
0C78C0
0ECD80
06CD80
06CD80
078780
038700
038700
ENDCHAR
STARTCHAR 1E85
ENCODING 7813
SWIDTH 765 0
DWIDTH 17 0
BBX 17 15 0 0
BITMAP
036000
036000
036000
000000
000000
FBEF80
618200
618200
31C400
31C400
196800
1A6800
1A6800
0C3000
0C3000
ENDCHAR
STARTCHAR 1EF2
ENCODING 7922
SWIDTH 630 0
DWIDTH 14 0
BBX 15 19 0 0
BITMAP
0600
0700
0180
0000
F83E
7018
3018
1830
1860
0CC0
07C0
0780
0300
0300
0300
0300
0300
0300
0FC0
ENDCHAR
STARTCHAR 1EF3
ENCODING 7923
SWIDTH 540 0
DWIDTH 12 0
BBX 12 20 0 -5
BITMAP
0C00
0E00
0300
0000
0000
F8F0
7040
3040
3080
1880
1880
0D00
0D00
0600
0600
0400
0400
0400
C800
F000
ENDCHAR
STARTCHAR 2013
ENCODING 8211
SWIDTH 495 0
DWIDTH 11 0
BBX 11 1 0 5
BITMAP
FFE0
ENDCHAR
STARTCHAR 2014
ENCODING 8212
SWIDTH 990 0
DWIDTH 22 0
BBX 22 1 0 5
BITMAP
FFFFFC
ENDCHAR
STARTCHAR 2015
ENCODING 8213
SWIDTH 765 0
DWIDTH 17 0
BBX 17 1 0 5
BITMAP
FFFF80
ENDCHAR
STARTCHAR 2017
ENCODING 8215
SWIDTH 495 0
DWIDTH 11 0
BBX 11 3 0 -5
BITMAP
FFE0
0000
FFE0
ENDCHAR
STARTCHAR 2018
ENCODING 8216
SWIDTH 225 0
DWIDTH 5 0
BBX 3 6 2 10
BITMAP
20
40
80
80
E0
60
ENDCHAR
STARTCHAR 2019
ENCODING 8217
SWIDTH 225 0
DWIDTH 5 0
BBX 3 6 2 10
BITMAP
C0
E0
20
20
40
80
ENDCHAR
STARTCHAR 201A
ENCODING 8218
SWIDTH 225 0
DWIDTH 5 0
BBX 3 6 2 -4
BITMAP
C0
E0
20
20
40
80
ENDCHAR
STARTCHAR 201B
ENCODING 8219
SWIDTH 225 0
DWIDTH 5 0
BBX 3 6 1 10
BITMAP
60
E0
80
80
40
20
ENDCHAR
STARTCHAR 201C
ENCODING 8220
SWIDTH 405 0
DWIDTH 9 0
BBX 7 6 1 10
BITMAP
22
44
88
88
EE
66
ENDCHAR
STARTCHAR 201D
ENCODING 8221
SWIDTH 405 0
DWIDTH 9 0
BBX 7 6 1 10
BITMAP
CC
EE
22
22
44
88
ENDCHAR
STARTCHAR 201E
ENCODING 8222
SWIDTH 405 0
DWIDTH 9 0
BBX 7 6 1 -4
BITMAP
CC
EE
22
22
44
88
ENDCHAR
STARTCHAR 2020
ENCODING 8224
SWIDTH 540 0
DWIDTH 12 0
BBX 9 19 1 -4
BITMAP
1C00
1C00
1C00
0800
0800
EB80
FF80
0800
1C00
1C00
0800
0800
0800
0800
0800
0800
0800
0800
0800
ENDCHAR
STARTCHAR 2021
ENCODING 8225
SWIDTH 540 0
DWIDTH 12 0
BBX 9 19 2 -4
BITMAP
1C00
1C00
1C00
0800
0800
EB80
FF80
0800
0800
1C00
0800
0800
EF80
FB80
0800
0800
1C00
1C00
1C00
ENDCHAR
STARTCHAR 2022
ENCODING 8226
SWIDTH 450 0
DWIDTH 10 0
BBX 6 6 2 4
BITMAP
78
FC
FC
FC
FC
78
ENDCHAR
STARTCHAR 2026
ENCODING 8230
SWIDTH 990 0
DWIDTH 22 0
BBX 16 3 3 0
BITMAP
C183
C183
C183
ENDCHAR
STARTCHAR 2030
ENCODING 8240
SWIDTH 1440 0
DWIDTH 32 0
BBX 30 15 1 0
BITMAP
3C018000
66030000
C3060000
C30C0000
C30C0000
C3180000
66300000
3C63C0F0
00666198
00CC330C
018C330C
030C330C
030C330C
06066198
0C03C0F0
ENDCHAR
STARTCHAR 2032
ENCODING 8242
SWIDTH 225 0
DWIDTH 5 0
BBX 3 6 1 9
BITMAP
60
60
40
40
C0
80
ENDCHAR
STARTCHAR 2033
ENCODING 8243
SWIDTH 360 0
DWIDTH 8 0
BBX 7 6 1 9
BITMAP
66
66
44
44
CC
88
ENDCHAR
STARTCHAR 2039
ENCODING 8249
SWIDTH 225 0
DWIDTH 5 0
BBX 3 8 1 2
BITMAP
20
60
40
C0
C0
40
60
20
ENDCHAR
STARTCHAR 203A
ENCODING 8250
SWIDTH 225 0
DWIDTH 5 0
BBX 3 8 2 2
BITMAP
80
C0
40
60
60
40
C0
80
ENDCHAR
STARTCHAR 203C
ENCODING 8252
SWIDTH 540 0
DWIDTH 12 0
BBX 7 15 2 0
BITMAP
C6
C6
C6
C6
C6
C6
42
42
42
42
42
00
C6
C6
C6
ENDCHAR
STARTCHAR 203E
ENCODING 8254
SWIDTH 630 0
DWIDTH 14 0
BBX 14 1 0 19
BITMAP
FFFC
ENDCHAR
STARTCHAR 2044
ENCODING 8260
SWIDTH 135 0
DWIDTH 3 0
BBX 11 15 -4 0
BITMAP
0060
00E0
00C0
0180
0380
0300
0600
0E00
0C00
1800
3800
3000
6000
E000
C000
ENDCHAR
STARTCHAR 207F
ENCODING 8319
SWIDTH 405 0
DWIDTH 9 0
BBX 9 7 1 6
BITMAP
2E00
F300
6300
6300
6300
6300
F780
ENDCHAR
STARTCHAR 20A3
ENCODING 8355
SWIDTH 630 0
DWIDTH 14 0
BBX 13 15 1 0
BITMAP
FFF0
3030
3010
3018
3008
3080
3080
3180
3F80
3080
3080
FC00
3000
3000
FC00
ENDCHAR
STARTCHAR 20A4
ENCODING 8356
SWIDTH 630 0
DWIDTH 14 0
BBX 14 15 0 0
BITMAP
07C0
1C30
1810
3008
3008
3000
FF80
1800
FF80
1C00
6C04
9C04
8F08
9BF8
70F0
ENDCHAR
STARTCHAR 20A7
ENCODING 8359
SWIDTH 1350 0
DWIDTH 30 0
BBX 29 15 1 0
BITMAP
FFC00000
30308000
30188000
30198000
301B8000
301FFFA0
30398C60
30318C30
3FC18E10
300183C0
300180F0
30018838
30018C18
30018E38
FC00F5E0
ENDCHAR
STARTCHAR 20AC
ENCODING 8364
SWIDTH 630 0
DWIDTH 14 0
BBX 13 15 0 0
BITMAP
07D0
0C30
1810
3018
2008
6000
FFC0
6000
FFC0
6000
3000
3008
1810
1C20
07C0
ENDCHAR
STARTCHAR 2105
ENCODING 8453
SWIDTH 855 0
DWIDTH 19 0
BBX 17 15 1 0
BITMAP
3C0600
660C00
C21800
C01800
C23000
646000
386000
00C000
018E00
019B00
033180
063180
063180
0C1300
181E00
ENDCHAR
STARTCHAR 2113
ENCODING 8467
SWIDTH 450 0
DWIDTH 10 0
BBX 9 15 1 0
BITMAP
0E00
1100
3100
3100
3200
3400
3800
3800
3000
7000
F000
B080
3180
3900
1E00
ENDCHAR
STARTCHAR 2116
ENCODING 8470
SWIDTH 1035 0
DWIDTH 23 0
BBX 21 15 1 0
BITMAP
FC7E00
3C1800
361800
361800
331800
3318F0
319890
319998
30D998
30D998
307998
307890
3038F0
303800
FC19F8
ENDCHAR
STARTCHAR 2122
ENCODING 8482
SWIDTH 990 0
DWIDTH 22 0
BBX 21 9 0 6
BITMAP
FF7038
993870
993870
182CB0
182CB0
182CB0
182730
182730
3C7278
ENDCHAR
STARTCHAR 2126
ENCODING 8486
SWIDTH 765 0
DWIDTH 17 0
BBX 15 15 1 0
BITMAP
07E0
1830
3018
600C
C006
C006
C006
C006
C006
E00C
600C
3038
9872
8842
F87E
ENDCHAR
STARTCHAR 212E
ENCODING 8494
SWIDTH 585 0
DWIDTH 13 0
BBX 11 12 1 0
BITMAP
1F00
2080
4040
C060
C060
FFE0
C000
C000
C000
4040
2180
1F00
ENDCHAR
STARTCHAR 215B
ENCODING 8539
SWIDTH 900 0
DWIDTH 20 0
BBX 16 15 3 0
BITMAP
3018
F038
3030
3060
30E0
30C0
3180
FFBE
0363
0673
0E3C
0C3E
1867
3863
303E
ENDCHAR
STARTCHAR 215C
ENCODING 8540
SWIDTH 900 0
DWIDTH 20 0
BBX 18 15 1 0
BITMAP
7C0600
860E00
060C00
381800
063800
863000
C66000
7CEF80
00D8C0
019CC0
038F00
030F80
0619C0
0E18C0
0C0F80
ENDCHAR
STARTCHAR 215D
ENCODING 8541
SWIDTH 900 0
DWIDTH 20 0
BBX 17 15 2 0
BITMAP
7C0C00
401C00
401800
783000
0C7000
0C6000
CCC000
79DF00
01B180
033980
071E00
061F00
0C3380
1C3180
181F00
ENDCHAR
STARTCHAR 215E
ENCODING 8542
SWIDTH 900 0
DWIDTH 20 0
BBX 18 15 1 0
BITMAP
7E0C00
841C00
8C1800
083000
187000
106000
30C000
31CF80
0198C0
031CC0
070F00
060F80
0C19C0
1C18C0
180F80
ENDCHAR
STARTCHAR 2190
ENCODING 8592
SWIDTH 990 0
DWIDTH 22 0
BBX 20 7 1 2
BITMAP
080000
100000
600000
FFFFF0
600000
100000
080000
ENDCHAR
STARTCHAR 2191
ENCODING 8593
SWIDTH 495 0
DWIDTH 11 0
BBX 7 20 2 -4
BITMAP
10
38
38
54
92
10
10
10
10
10
10
10
10
10
10
10
10
10
10
10
ENDCHAR
STARTCHAR 2192
ENCODING 8594
SWIDTH 990 0
DWIDTH 22 0
BBX 20 7 1 2
BITMAP
000100
000080
000060
FFFFF0
000060
000080
000100
ENDCHAR
STARTCHAR 2193
ENCODING 8595
SWIDTH 495 0
DWIDTH 11 0
BBX 7 20 2 -4
BITMAP
10
10
10
10
10
10
10
10
10
10
10
10
10
10
10
92
54
38
38
10
ENDCHAR
STARTCHAR 2194
ENCODING 8596
SWIDTH 990 0
DWIDTH 22 0
BBX 20 7 1 2
BITMAP
080100
100080
600060
FFFFF0
600060
100080
080100
ENDCHAR
STARTCHAR 2195
ENCODING 8597
SWIDTH 495 0
DWIDTH 11 0
BBX 7 20 2 -4
BITMAP
10
38
38
54
92
10
10
10
10
10
10
10
10
10
10
92
54
38
38
10
ENDCHAR
STARTCHAR 21A8
ENCODING 8616
SWIDTH 495 0
DWIDTH 11 0
BBX 7 22 2 -6
BITMAP
10
38
38
54
92
10
10
10
10
10
10
10
10
10
10
92
54
38
38
10
00
FE
ENDCHAR
STARTCHAR 2202
ENCODING 8706
SWIDTH 495 0
DWIDTH 11 0
BBX 10 15 1 0
BITMAP
0F00
1180
20C0
0040
0040
0F40
30C0
6040
6040
C080
C080
C100
C100
6200
3C00
ENDCHAR
STARTCHAR 2206
ENCODING 8710
SWIDTH 585 0
DWIDTH 13 0
BBX 12 15 0 0
BITMAP
0100
0100
0300
0380
0580
0580
0980
08C0
10C0
10C0
2060
2060
4060
4070
FFF0
ENDCHAR
STARTCHAR 220F
ENCODING 8719
SWIDTH 810 0
DWIDTH 18 0
BBX 17 20 0 -5
BITMAP
FFFF80
300600
300600
300600
300600
300600
300600
300600
300600
300600
300600
300600
300600
300600
300600
300600
300600
300600
300600
FC1F80
ENDCHAR
STARTCHAR 2211
ENCODING 8721
SWIDTH 720 0
DWIDTH 16 0
BBX 16 20 0 -5
BITMAP
FFFE
6006
3002
1802
1800
0C00
0600
0300
0180
0080
0100
0200
0400
0400
0800
1000
2001
2003
4002
FFFE
ENDCHAR
STARTCHAR 2212
ENCODING 8722
SWIDTH 585 0
DWIDTH 13 0
BBX 10 2 1 7
BITMAP
FFC0
FFC0
ENDCHAR
STARTCHAR 2215
ENCODING 8725
SWIDTH 135 0
DWIDTH 3 0
BBX 11 15 -4 0
BITMAP
0060
00E0
00C0
0180
0380
0300
0600
0E00
0C00
1800
3800
3000
6000
E000
C000
ENDCHAR
STARTCHAR 2219
ENCODING 8729
SWIDTH 315 0
DWIDTH 7 0
BBX 2 3 3 6
BITMAP
C0
C0
C0
ENDCHAR
STARTCHAR 221A
ENCODING 8730
SWIDTH 540 0
DWIDTH 12 0
BBX 11 20 1 0
BITMAP
0020
0020
0020
0040
0040
0040
0040
0040
0040
3040
F080
1880
1C80
0C80
0E80
0680
0780
0300
0300
0100
ENDCHAR
STARTCHAR 221E
ENCODING 8734
SWIDTH 720 0
DWIDTH 16 0
BBX 15 9 0 1
BITMAP
38F8
45C4
8386
8302
8302
8302
4702
3C84
0078
ENDCHAR
STARTCHAR 221F
ENCODING 8735
SWIDTH 990 0
DWIDTH 22 0
BBX 14 14 4 0
BITMAP
C000
C000
C000
C000
C000
C000
C000
C000
C000
C000
C000
C000
FFFC
FFFC
ENDCHAR
STARTCHAR 2229
ENCODING 8745
SWIDTH 720 0
DWIDTH 16 0
BBX 12 15 2 0
BITMAP
0F00
30C0
6060
4060
C030
C030
C030
C030
C030
C030
C030
C030
C030
C030
C030
ENDCHAR
STARTCHAR 222B
ENCODING 8747
SWIDTH 270 0
DWIDTH 6 0
BBX 6 22 0 -1
BITMAP
1C
34
30
30
30
30
30
30
30
30
30
30
30
30
30
30
30
30
30
30
A0
E0
ENDCHAR
STARTCHAR 2248
ENCODING 8776
SWIDTH 540 0
DWIDTH 12 0
BBX 10 7 1 3
BITMAP
78C0
C780
8000
0000
0040
78C0
C780
ENDCHAR
STARTCHAR 2260
ENCODING 8800
SWIDTH 540 0
DWIDTH 12 0
BBX 10 14 1 1
BITMAP
00C0
01C0
0180
0300
FFC0
FFC0
0600
0C00
FFC0
FFC0
3000
3000
6000
6000
ENDCHAR
STARTCHAR 2261
ENCODING 8801
SWIDTH 585 0
DWIDTH 13 0
BBX 10 5 1 4
BITMAP
FFC0
0000
FFC0
0000
FFC0
ENDCHAR
STARTCHAR 2264
ENCODING 8804
SWIDTH 540 0
DWIDTH 12 0
BBX 10 12 1 1
BITMAP
00C0
07C0
3F80
F800
C000
F800
3F80
07C0
00C0
0000
FFC0
FFC0
ENDCHAR
STARTCHAR 2265
ENCODING 8805
SWIDTH 540 0
DWIDTH 12 0
BBX 10 12 1 1
BITMAP
C000
F800
3F00
07C0
00C0
07C0
3F00
F800
C000
0000
FFC0
FFC0
ENDCHAR
STARTCHAR 2302
ENCODING 8962
SWIDTH 585 0
DWIDTH 13 0
BBX 10 12 2 0
BITMAP
0800
1400
2200
4100
8080
8040
8040
8040
8040
8040
8040
FFC0
ENDCHAR
STARTCHAR 2310
ENCODING 8976
SWIDTH 585 0
DWIDTH 13 0
BBX 11 8 1 0
BITMAP
FFE0
FFE0
C000
C000
C000
C000
C000
C000
ENDCHAR
STARTCHAR 2320
ENCODING 8992
SWIDTH 585 0
DWIDTH 13 0
BBX 4 25 6 -6
BITMAP
30
70
90
80
80
80
80
80
80
80
80
80
80
80
80
80
80
80
80
80
80
80
80
80
80
ENDCHAR
STARTCHAR 2321
ENCODING 8993
SWIDTH 585 0
DWIDTH 13 0
BBX 4 24 3 -5
BITMAP
10
10
10
10
10
10
10
10
10
10
10
10
10
10
10
10
10
10
10
10
10
10
90
E0
ENDCHAR
STARTCHAR 2500
ENCODING 9472
SWIDTH 720 0
DWIDTH 16 0
BBX 16 2 0 6
BITMAP
FFFF
FFFF
ENDCHAR
STARTCHAR 2502
ENCODING 9474
SWIDTH 630 0
DWIDTH 14 0
BBX 2 27 5 -7
BITMAP
C0
C0
C0
C0
C0
C0
C0
C0
C0
C0
C0
C0
C0
C0
C0
C0
C0
C0
C0
C0
C0
C0
C0
C0
C0
C0
C0
ENDCHAR
STARTCHAR 250C
ENCODING 9484
SWIDTH 720 0
DWIDTH 16 0
BBX 9 15 7 -7
BITMAP
FF80
FF80
C000
C000
C000
C000
C000
C000
C000
C000
C000
C000
C000
C000
C000
ENDCHAR
STARTCHAR 2510
ENCODING 9488
SWIDTH 720 0
DWIDTH 16 0
BBX 9 15 0 -7
BITMAP
FF80
FF80
0180
0180
0180
0180
0180
0180
0180
0180
0180
0180
0180
0180
0180
ENDCHAR
STARTCHAR 2514
ENCODING 9492
SWIDTH 720 0
DWIDTH 16 0
BBX 9 14 7 6
BITMAP
C000
C000
C000
C000
C000
C000
C000
C000
C000
C000
C000
C000
FF80
FF80
ENDCHAR
STARTCHAR 2518
ENCODING 9496
SWIDTH 720 0
DWIDTH 16 0
BBX 9 14 0 6
BITMAP
0180
0180
0180
0180
0180
0180
0180
0180
0180
0180
0180
0180
FF80
FF80
ENDCHAR
STARTCHAR 251C
ENCODING 9500
SWIDTH 720 0
DWIDTH 16 0
BBX 9 27 7 -7
BITMAP
C000
C000
C000
C000
C000
C000
C000
C000
C000
C000
C000
C000
FF80
FF80
C000
C000
C000
C000
C000
C000
C000
C000
C000
C000
C000
C000
C000
ENDCHAR
STARTCHAR 2524
ENCODING 9508
SWIDTH 720 0
DWIDTH 16 0
BBX 9 27 0 -7
BITMAP
0180
0180
0180
0180
0180
0180
0180
0180
0180
0180
0180
0180
FF80
FF80
0180
0180
0180
0180
0180
0180
0180
0180
0180
0180
0180
0180
0180
ENDCHAR
STARTCHAR 252C
ENCODING 9516
SWIDTH 720 0
DWIDTH 16 0
BBX 16 15 0 -7
BITMAP
FFFF
FFFF
0180
0180
0180
0180
0180
0180
0180
0180
0180
0180
0180
0180
0180
ENDCHAR
STARTCHAR 2534
ENCODING 9524
SWIDTH 720 0
DWIDTH 16 0
BBX 16 14 0 6
BITMAP
0180
0180
0180
0180
0180
0180
0180
0180
0180
0180
0180
0180
FFFF
FFFF
ENDCHAR
STARTCHAR 253C
ENCODING 9532
SWIDTH 720 0
DWIDTH 16 0
BBX 16 27 0 -7
BITMAP
0180
0180
0180
0180
0180
0180
0180
0180
0180
0180
0180
0180
FFFF
FFFF
0180
0180
0180
0180
0180
0180
0180
0180
0180
0180
0180
0180
0180
ENDCHAR
STARTCHAR 2550
ENCODING 9552
SWIDTH 720 0
DWIDTH 16 0
BBX 16 6 0 4
BITMAP
FFFF
FFFF
0000
0000
FFFF
FFFF
ENDCHAR
STARTCHAR 2551
ENCODING 9553
SWIDTH 720 0
DWIDTH 16 0
BBX 6 27 5 -7
BITMAP
CC
CC
CC
CC
CC
CC
CC
CC
CC
CC
CC
CC
CC
CC
CC
CC
CC
CC
CC
CC
CC
CC
CC
CC
CC
CC
CC
ENDCHAR
STARTCHAR 2552
ENCODING 9554
SWIDTH 720 0
DWIDTH 16 0
BBX 9 17 7 -7
BITMAP
FF80
FF80
C000
C000
FF80
FF80
C000
C000
C000
C000
C000
C000
C000
C000
C000
C000
C000
ENDCHAR
STARTCHAR 2553
ENCODING 9555
SWIDTH 720 0
DWIDTH 16 0
BBX 11 15 5 -7
BITMAP
FFE0
FFE0
CC00
CC00
CC00
CC00
CC00
CC00
CC00
CC00
CC00
CC00
CC00
CC00
CC00
ENDCHAR
STARTCHAR 2554
ENCODING 9556
SWIDTH 720 0
DWIDTH 16 0
BBX 11 17 5 -7
BITMAP
FFE0
FFE0
C000
C000
CFE0
CFE0
CC00
CC00
CC00
CC00
CC00
CC00
CC00
CC00
CC00
CC00
CC00
ENDCHAR
STARTCHAR 2555
ENCODING 9557
SWIDTH 720 0
DWIDTH 16 0
BBX 9 17 0 -7
BITMAP
FF80
FF80
0180
0180
FF80
FF80
0180
0180
0180
0180
0180
0180
0180
0180
0180
0180
0180
ENDCHAR
STARTCHAR 2556
ENCODING 9558
SWIDTH 720 0
DWIDTH 16 0
BBX 11 15 0 -7
BITMAP
FFE0
FFE0
0660
0660
0660
0660
0660
0660
0660
0660
0660
0660
0660
0660
0660
ENDCHAR
STARTCHAR 2557
ENCODING 9559
SWIDTH 720 0
DWIDTH 16 0
BBX 11 17 0 -7
BITMAP
FFE0
FFE0
0060
0060
FE60
FE60
0660
0660
0660
0660
0660
0660
0660
0660
0660
0660
0660
ENDCHAR
STARTCHAR 2558
ENCODING 9560
SWIDTH 720 0
DWIDTH 16 0
BBX 9 16 7 4
BITMAP
C000
C000
C000
C000
C000
C000
C000
C000
C000
C000
FF80
FF80
C000
C000
FF80
FF80
ENDCHAR
STARTCHAR 2559
ENCODING 9561
SWIDTH 720 0
DWIDTH 16 0
BBX 11 14 5 6
BITMAP
CC00
CC00
CC00
CC00
CC00
CC00
CC00
CC00
CC00
CC00
CC00
CC00
FFE0
FFE0
ENDCHAR
STARTCHAR 255A
ENCODING 9562
SWIDTH 720 0
DWIDTH 16 0
BBX 11 16 5 4
BITMAP
CC00
CC00
CC00
CC00
CC00
CC00
CC00
CC00
CC00
CC00
CFE0
CFE0
C000
C000
FFE0
FFE0
ENDCHAR
STARTCHAR 255B
ENCODING 9563
SWIDTH 720 0
DWIDTH 16 0
BBX 9 16 0 4
BITMAP
0180
0180
0180
0180
0180
0180
0180
0180
0180
0180
FF80
FF80
0180
0180
FF80
FF80
ENDCHAR
STARTCHAR 255C
ENCODING 9564
SWIDTH 720 0
DWIDTH 16 0
BBX 11 14 0 6
BITMAP
0660
0660
0660
0660
0660
0660
0660
0660
0660
0660
0660
0660
FFE0
FFE0
ENDCHAR
STARTCHAR 255D
ENCODING 9565
SWIDTH 720 0
DWIDTH 16 0
BBX 11 16 0 4
BITMAP
0660
0660
0660
0660
0660
0660
0660
0660
0660
0660
FE60
FE60
0060
0060
FFE0
FFE0
ENDCHAR
STARTCHAR 255E
ENCODING 9566
SWIDTH 720 0
DWIDTH 16 0
BBX 9 27 7 -7
BITMAP
C000
C000
C000
C000
C000
C000
C000
C000
C000
C000
FF80
FF80
C000
C000
FF80
FF80
C000
C000
C000
C000
C000
C000
C000
C000
C000
C000
C000
ENDCHAR
STARTCHAR 255F
ENCODING 9567
SWIDTH 720 0
DWIDTH 16 0
BBX 11 27 5 -7
BITMAP
CC00
CC00
CC00
CC00
CC00
CC00
CC00
CC00
CC00
CC00
CC00
CC00
CFE0
CFE0
CC00
CC00
CC00
CC00
CC00
CC00
CC00
CC00
CC00
CC00
CC00
CC00
CC00
ENDCHAR
STARTCHAR 2560
ENCODING 9568
SWIDTH 720 0
DWIDTH 16 0
BBX 11 27 5 -7
BITMAP
CC00
CC00
CC00
CC00
CC00
CC00
CC00
CC00
CC00
CC00
CFE0
CFE0
C000
C000
CFE0
CFE0
CC00
CC00
CC00
CC00
CC00
CC00
CC00
CC00
CC00
CC00
CC00
ENDCHAR
STARTCHAR 2561
ENCODING 9569
SWIDTH 720 0
DWIDTH 16 0
BBX 9 27 0 -7
BITMAP
0180
0180
0180
0180
0180
0180
0180
0180
0180
0180
FF80
FF80
0180
0180
FF80
FF80
0180
0180
0180
0180
0180
0180
0180
0180
0180
0180
0180
ENDCHAR
STARTCHAR 2562
ENCODING 9570
SWIDTH 720 0
DWIDTH 16 0
BBX 11 27 0 -7
BITMAP
0660
0660
0660
0660
0660
0660
0660
0660
0660
0660
0660
0660
FE60
FE60
0660
0660
0660
0660
0660
0660
0660
0660
0660
0660
0660
0660
0660
ENDCHAR
STARTCHAR 2563
ENCODING 9571
SWIDTH 720 0
DWIDTH 16 0
BBX 11 27 0 -7
BITMAP
0660
0660
0660
0660
0660
0660
0660
0660
0660
0660
FE60
FE60
0060
0060
FE60
FE60
0660
0660
0660
0660
0660
0660
0660
0660
0660
0660
0660
ENDCHAR
STARTCHAR 2564
ENCODING 9572
SWIDTH 720 0
DWIDTH 16 0
BBX 16 17 0 -7
BITMAP
FFFF
FFFF
0000
0000
FFFF
FFFF
0180
0180
0180
0180
0180
0180
0180
0180
0180
0180
0180
ENDCHAR
STARTCHAR 2565
ENCODING 9573
SWIDTH 720 0
DWIDTH 16 0
BBX 16 15 0 -7
BITMAP
FFFF
FFFF
0660
0660
0660
0660
0660
0660
0660
0660
0660
0660
0660
0660
0660
ENDCHAR
STARTCHAR 2566
ENCODING 9574
SWIDTH 720 0
DWIDTH 16 0
BBX 16 17 0 -7
BITMAP
FFFF
FFFF
0000
0000
FE7F
FE7F
0660
0660
0660
0660
0660
0660
0660
0660
0660
0660
0660
ENDCHAR
STARTCHAR 2567
ENCODING 9575
SWIDTH 720 0
DWIDTH 16 0
BBX 16 16 0 4
BITMAP
0180
0180
0180
0180
0180
0180
0180
0180
0180
0180
FFFF
FFFF
0000
0000
FFFF
FFFF
ENDCHAR
STARTCHAR 2568
ENCODING 9576
SWIDTH 720 0
DWIDTH 16 0
BBX 16 14 0 6
BITMAP
0660
0660
0660
0660
0660
0660
0660
0660
0660
0660
0660
0660
FFFF
FFFF
ENDCHAR
STARTCHAR 2569
ENCODING 9577
SWIDTH 720 0
DWIDTH 16 0
BBX 16 16 0 4
BITMAP
0660
0660
0660
0660
0660
0660
0660
0660
0660
0660
FE7F
FE7F
0000
0000
FFFF
FFFF
ENDCHAR
STARTCHAR 256A
ENCODING 9578
SWIDTH 720 0
DWIDTH 16 0
BBX 16 27 0 -7
BITMAP
0180
0180
0180
0180
0180
0180
0180
0180
0180
0180
FFFF
FFFF
0180
0180
FFFF
FFFF
0180
0180
0180
0180
0180
0180
0180
0180
0180
0180
0180
ENDCHAR
STARTCHAR 256B
ENCODING 9579
SWIDTH 720 0
DWIDTH 16 0
BBX 16 27 0 -7
BITMAP
0660
0660
0660
0660
0660
0660
0660
0660
0660
0660
0660
0660
FFFF
FFFF
0660
0660
0660
0660
0660
0660
0660
0660
0660
0660
0660
0660
0660
ENDCHAR
STARTCHAR 256C
ENCODING 9580
SWIDTH 720 0
DWIDTH 16 0
BBX 16 27 0 -7
BITMAP
0660
0660
0660
0660
0660
0660
0660
0660
0660
0660
FE7F
FE7F
0000
0000
FE7F
FE7F
0660
0660
0660
0660
0660
0660
0660
0660
0660
0660
0660
ENDCHAR
STARTCHAR 2580
ENCODING 9600
SWIDTH 720 0
DWIDTH 16 0
BBX 16 13 0 7
BITMAP
FFFF
FFFF
FFFF
FFFF
FFFF
FFFF
FFFF
FFFF
FFFF
FFFF
FFFF
FFFF
FFFF
ENDCHAR
STARTCHAR 2584
ENCODING 9604
SWIDTH 720 0
DWIDTH 16 0
BBX 16 14 0 -7
BITMAP
FFFF
FFFF
FFFF
FFFF
FFFF
FFFF
FFFF
FFFF
FFFF
FFFF
FFFF
FFFF
FFFF
FFFF
ENDCHAR
STARTCHAR 2588
ENCODING 9608
SWIDTH 720 0
DWIDTH 16 0
BBX 16 27 0 -7
BITMAP
FFFF
FFFF
FFFF
FFFF
FFFF
FFFF
FFFF
FFFF
FFFF
FFFF
FFFF
FFFF
FFFF
FFFF
FFFF
FFFF
FFFF
FFFF
FFFF
FFFF
FFFF
FFFF
FFFF
FFFF
FFFF
FFFF
FFFF
ENDCHAR
STARTCHAR 258C
ENCODING 9612
SWIDTH 720 0
DWIDTH 16 0
BBX 8 27 0 -7
BITMAP
FF
FF
FF
FF
FF
FF
FF
FF
FF
FF
FF
FF
FF
FF
FF
FF
FF
FF
FF
FF
FF
FF
FF
FF
FF
FF
FF
ENDCHAR
STARTCHAR 2590
ENCODING 9616
SWIDTH 720 0
DWIDTH 16 0
BBX 8 27 8 -7
BITMAP
FF
FF
FF
FF
FF
FF
FF
FF
FF
FF
FF
FF
FF
FF
FF
FF
FF
FF
FF
FF
FF
FF
FF
FF
FF
FF
FF
ENDCHAR
STARTCHAR 2591
ENCODING 9617
SWIDTH 720 0
DWIDTH 16 0
BBX 15 25 1 -5
BITMAP
8610
0000
0000
1086
0000
8610
8610
0000
1086
0000
0000
8610
0000
1086
1086
0000
8610
0000
0000
1086
0000
8610
8610
0000
1086
ENDCHAR
STARTCHAR 2592
ENCODING 9618
SWIDTH 720 0
DWIDTH 16 0
BBX 16 25 0 -5
BITMAP
4B4B
0000
0000
B4B6
0000
4B4B
4B4B
0000
B4B6
0000
0000
4B4B
0000
B4B6
B4B6
0000
4B4B
0000
0000
B4B6
0000
4B4B
4B4B
0000
B4B6
ENDCHAR
STARTCHAR 2593
ENCODING 9619
SWIDTH 720 0
DWIDTH 16 0
BBX 16 27 0 -7
BITMAP
6969
FFFF
FFFF
9696
FFFF
6969
6969
FFFF
9696
FFFF
FFFF
6969
FFFF
9696
9696
FFFF
6969
FFFF
FFFF
9696
FFFF
6969
6969
FFFF
9696
FFFF
FFFF
ENDCHAR
STARTCHAR 25A0
ENCODING 9632
SWIDTH 585 0
DWIDTH 13 0
BBX 10 10 2 0
BITMAP
FFC0
FFC0
FFC0
FFC0
FFC0
FFC0
FFC0
FFC0
FFC0
FFC0
ENDCHAR
STARTCHAR 25A1
ENCODING 9633
SWIDTH 585 0
DWIDTH 13 0
BBX 9 10 2 0
BITMAP
FF80
8080
8080
8080
8080
8080
8080
8080
8080
FF80
ENDCHAR
STARTCHAR 25AA
ENCODING 9642
SWIDTH 360 0
DWIDTH 8 0
BBX 5 5 1 5
BITMAP
F8
F8
F8
F8
F8
ENDCHAR
STARTCHAR 25AB
ENCODING 9643
SWIDTH 360 0
DWIDTH 8 0
BBX 6 6 1 5
BITMAP
FC
84
84
84
84
FC
ENDCHAR
STARTCHAR 25AC
ENCODING 9644
SWIDTH 990 0
DWIDTH 22 0
BBX 22 5 0 3
BITMAP
FFFFFC
FFFFFC
FFFFFC
FFFFFC
FFFFFC
ENDCHAR
STARTCHAR 25B2
ENCODING 9650
SWIDTH 990 0
DWIDTH 22 0
BBX 14 14 4 0
BITMAP
0300
0300
0780
0780
0FC0
0FC0
1FE0
1FE0
3FF0
3FF0
7FF8
7FF8
FFFC
FFFC
ENDCHAR
STARTCHAR 25BA
ENCODING 9658
SWIDTH 990 0
DWIDTH 22 0
BBX 16 15 3 0
BITMAP
C000
F000
FC00
FF00
FFC0
FFF0
FFFC
FFFF
FFFC
FFF0
FFC0
FF00
FC00
F000
C000
ENDCHAR
STARTCHAR 25BC
ENCODING 9660
SWIDTH 990 0
DWIDTH 22 0
BBX 15 15 3 0
BITMAP
FFFE
7FFE
7FFC
3FFC
3FF8
1FF8
1FF0
0FF0
0FE0
07E0
07C0
03C0
0380
0180
0100
ENDCHAR
STARTCHAR 25C4
ENCODING 9668
SWIDTH 990 0
DWIDTH 22 0
BBX 16 15 3 0
BITMAP
0003
000F
003F
00FF
03FF
0FFF
3FFF
FFFF
3FFF
0FFF
03FF
00FF
003F
000F
0003
ENDCHAR
STARTCHAR 25CA
ENCODING 9674
SWIDTH 495 0
DWIDTH 11 0
BBX 9 15 0 0
BITMAP
1C00
3600
3600
3600
6300
6300
C180
C180
C180
6300
6300
3600
3600
3600
1C00
ENDCHAR
STARTCHAR 25CB
ENCODING 9675
SWIDTH 585 0
DWIDTH 13 0
BBX 9 10 2 1
BITMAP
1E00
6100
8080
8080
8080
8080
8080
4100
2300
1C00
ENDCHAR
STARTCHAR 25CF
ENCODING 9679
SWIDTH 585 0
DWIDTH 13 0
BBX 9 9 2 1
BITMAP
3E00
7F00
FF80
FF80
FF80
FF80
FF80
7F00
3E00
ENDCHAR
STARTCHAR 25D8
ENCODING 9688
SWIDTH 585 0
DWIDTH 13 0
BBX 11 11 1 0
BITMAP
FFE0
FFE0
FFE0
FFE0
F1E0
E0E0
F0E0
F1E0
FFE0
FFE0
FFE0
ENDCHAR
STARTCHAR 25D9
ENCODING 9689
SWIDTH 585 0
DWIDTH 13 0
BBX 13 12 0 0
BITMAP
FFF8
F878
EFB8
DFD8
DFD8
DFF8
DFD8
DFD8
EFB8
F738
FDF8
FFF8
ENDCHAR
STARTCHAR 25E6
ENCODING 9702
SWIDTH 360 0
DWIDTH 8 0
BBX 5 5 1 5
BITMAP
70
88
88
88
70
ENDCHAR
STARTCHAR 263A
ENCODING 9786
SWIDTH 990 0
DWIDTH 22 0
BBX 14 13 4 -1
BITMAP
0FE0
3030
2008
4008
4864
8864
8004
8004
4804
4448
2398
1030
0FC0
ENDCHAR
STARTCHAR 263B
ENCODING 9787
SWIDTH 1035 0
DWIDTH 23 0
BBX 13 13 5 -1
BITMAP
1FC0
3FE0
7FF0
FFF8
E738
E738
FFF8
FFF8
FFF8
F778
78F0
3FE0
1FC0
ENDCHAR
STARTCHAR 263C
ENCODING 9788
SWIDTH 900 0
DWIDTH 20 0
BBX 20 19 0 -2
BITMAP
002000
002000
102040
08F080
070D00
040200
080100
080100
080100
F800F0
080100
080100
080100
040200
070D00
08F080
102040
002000
002000
ENDCHAR
STARTCHAR 2640
ENCODING 9792
SWIDTH 540 0
DWIDTH 12 0
BBX 11 18 0 -3
BITMAP
1F80
2040
4020
4020
8020
4020
4020
4040
2080
1F00
0400
0400
0400
0400
3FC0
0400
0400
0400
ENDCHAR
STARTCHAR 2642
ENCODING 9794
SWIDTH 675 0
DWIDTH 15 0
BBX 13 18 1 -4
BITMAP
0060
01F0
0650
0090
0090
0088
0100
0100
1E00
6180
8080
8040
8040
8040
8040
40C0
2380
1E00
ENDCHAR
STARTCHAR 2660
ENCODING 9824
SWIDTH 540 0
DWIDTH 12 0
BBX 10 12 1 0
BITMAP
0800
0C00
1E00
3F00
FF80
FFC0
FFC0
FFC0
FB80
0800
0C00
3F00
ENDCHAR
STARTCHAR 2663
ENCODING 9827
SWIDTH 675 0
DWIDTH 15 0
BBX 13 13 1 0
BITMAP
0F00
0F80
1F80
1F80
7FF0
FFF0
FFF8
FFF8
FDF8
72F0
0600
0700
3FC0
ENDCHAR
STARTCHAR 2665
ENCODING 9829
SWIDTH 585 0
DWIDTH 13 0
BBX 11 13 1 0
BITMAP
71C0
FBE0
FFE0
FFE0
FFE0
7FC0
7FC0
3F80
1F00
0E00
0E00
0400
0400
ENDCHAR
STARTCHAR 2666
ENCODING 9830
SWIDTH 495 0
DWIDTH 11 0
BBX 10 13 1 0
BITMAP
0800
0C00
1C00
3E00
7F00
7F80
FFC0
FF80
7F00
3E00
1C00
1C00
0800
ENDCHAR
STARTCHAR 266A
ENCODING 9834
SWIDTH 765 0
DWIDTH 17 0
BBX 17 21 0 -5
BITMAP
003000
003800
003C00
002600
002300
002180
002000
002000
002000
002000
002000
002000
002000
0F2000
3FE000
7FE000
FFE000
FFE000
FFE000
7FC000
3F0000
ENDCHAR
STARTCHAR 266B
ENCODING 9835
SWIDTH 990 0
DWIDTH 22 0
BBX 16 21 3 -5
BITMAP
0003
001F
00FF
03FF
03F1
0381
0201
0201
0201
0201
0201
0201
021D
023F
027F
3E7F
7E7F
FE3E
FE00
7C00
3800
ENDCHAR
STARTCHAR F000
ENCODING 61440
SWIDTH 765 0
DWIDTH 17 0
BBX 1 1 0 0
BITMAP
00
ENDCHAR
STARTCHAR F001
ENCODING 61441
SWIDTH 630 0
DWIDTH 14 0
BBX 13 16 1 0
BITMAP
0F80
19C0
30C0
3000
3000
3000
FFE0
3060
3060
3060
3060
3060
3060
3060
3060
FDF8
ENDCHAR
STARTCHAR F002
ENCODING 61442
SWIDTH 630 0
DWIDTH 14 0
BBX 13 16 1 0
BITMAP
0FE0
19E0
3060
3060
3060
3060
FFE0
3060
3060
3060
3060
3060
3060
3060
3060
FDF8
ENDCHAR
STARTCHAR F003
ENCODING 61443
SWIDTH 360 0
DWIDTH 8 0
BBX 8 8 0 7
BITMAP
0C
1C
2C
4C
FF
0C
0C
0C
ENDCHAR
STARTCHAR F004
ENCODING 61444
SWIDTH 315 0
DWIDTH 7 0
BBX 3 6 2 -7
BITMAP
C0
E0
20
20
40
80
ENDCHAR
STARTCHAR F005
ENCODING 61445
SWIDTH 315 0
DWIDTH 7 0
BBX 4 3 2 -4
BITMAP
F0
10
F0
ENDCHAR
STARTCHAR F006
ENCODING 61446
SWIDTH 540 0
DWIDTH 12 0
BBX 11 10 1 0
BITMAP
7FE0
9980
9980
1980
1980
1980
3180
3180
71A0
60C0
ENDCHAR
STARTCHAR F007
ENCODING 61447
SWIDTH 360 0
DWIDTH 8 0
BBX 6 8 1 7
BITMAP
7C
40
40
78
0C
0C
CC
78
ENDCHAR
STARTCHAR F008
ENCODING 61448
SWIDTH 360 0
DWIDTH 8 0
BBX 7 8 0 7
BITMAP
7E
84
8C
08
18
10
30
30
ENDCHAR
STARTCHAR F009
ENCODING 61449
SWIDTH 360 0
DWIDTH 8 0
BBX 7 8 0 7
BITMAP
7C
C6
E6
78
7C
CE
C6
7C
ENDCHAR
STARTCHAR F100
ENCODING 61696
SWIDTH 630 0
DWIDTH 14 0
BBX 12 15 1 0
BITMAP
FFF0
3030
3010
3010
3000
3000
3000
3000
3000
3000
3000
3000
3000
3000
FC00
ENDCHAR
STARTCHAR F101
ENCODING 61697
SWIDTH 765 0
DWIDTH 17 0
BBX 15 15 1 0
BITMAP
07C0
1830
3018
600C
4824
C826
CFE6
CFE6
C826
C826
4004
600C
3018
1830
07C0
ENDCHAR
STARTCHAR F102
ENCODING 61698
SWIDTH 765 0
DWIDTH 17 0
BBX 15 15 1 0
BITMAP
0FC0
0300
1FE0
3318
630C
C306
C306
C306
C306
C306
630C
3318
1FE0
0300
0FC0
ENDCHAR
STARTCHAR F103
ENCODING 61699
SWIDTH 540 0
DWIDTH 12 0
BBX 11 10 1 0
BITMAP
3CC0
6680
C380
C180
C180
C180
C300
C320
6720
3CC0
ENDCHAR
STARTCHAR F104
ENCODING 61700
SWIDTH 450 0
DWIDTH 10 0
BBX 8 15 1 0
BITMAP
3C
46
42
20
10
08
34
66
C3
C3
C3
C3
C2
66
3C
ENDCHAR
STARTCHAR F105
ENCODING 61701
SWIDTH 450 0
DWIDTH 10 0
BBX 8 10 1 0
BITMAP
7E
C7
C3
40
3C
40
C0
C3
63
3E
ENDCHAR
STARTCHAR F106
ENCODING 61702
SWIDTH 585 0
DWIDTH 13 0
BBX 12 10 1 0
BITMAP
1FF0
7FF0
6100
C180
C0C0
C0C0
C0C0
60C0
3180
1F00
ENDCHAR
STARTCHAR F107
ENCODING 61703
SWIDTH 405 0
DWIDTH 9 0
BBX 10 10 0 0
BITMAP
3F80
7F80
CC00
8C00
0C00
0C00
0C00
0C00
0C40
0780
ENDCHAR
STARTCHAR F108
ENCODING 61704
SWIDTH 540 0
DWIDTH 12 0
BBX 10 15 1 -5
BITMAP
3700
6D80
CCC0
CCC0
CCC0
CCC0
CCC0
4C80
6D80
3F00
0C00
0C00
0C00
0C00
0C00
ENDCHAR
STARTCHAR FB01
ENCODING 64257
SWIDTH 630 0
DWIDTH 14 0
BBX 13 16 1 0
BITMAP
0F80
19C0
30C0
3000
3000
3000
FFE0
3060
3060
3060
3060
3060
3060
3060
3060
FDF8
ENDCHAR
STARTCHAR FB02
ENCODING 64258
SWIDTH 630 0
DWIDTH 14 0
BBX 13 16 1 0
BITMAP
0FE0
19E0
3060
3060
3060
3060
FFE0
3060
3060
3060
3060
3060
3060
3060
3060
FDF8
ENDCHAR
ENDFONT
